<?xml version="1.0" encoding="UTF-8" standalone="no"?>
<svg
   version="1.0"
   width="633.94727pt"
   height="246.50186pt"
   viewBox="0 0 633.94727 246.50186"
   preserveAspectRatio="xMidYMid"
   id="svg36"
   sodipodi:docname="ehs-support.svg"
   inkscape:version="1.2.2 (b0a8486, 2022-12-01)"
   xmlns:inkscape="http://www.inkscape.org/namespaces/inkscape"
   xmlns:sodipodi="http://sodipodi.sourceforge.net/DTD/sodipodi-0.dtd"
   xmlns="http://www.w3.org/2000/svg"
   xmlns:svg="http://www.w3.org/2000/svg">
  <defs
     id="defs40" />
  <sodipodi:namedview
     id="namedview38"
     pagecolor="#ffffff"
     bordercolor="#000000"
     borderopacity="0.25"
     inkscape:showpageshadow="2"
     inkscape:pageopacity="0.0"
     inkscape:pagecheckerboard="0"
     inkscape:deskcolor="#d1d1d1"
     inkscape:document-units="pt"
     showgrid="false"
     inkscape:zoom="0.77040549"
     inkscape:cx="412.76964"
     inkscape:cy="227.15311"
     inkscape:window-width="1280"
     inkscape:window-height="755"
     inkscape:window-x="1342"
     inkscape:window-y="1223"
     inkscape:window-maximized="0"
     inkscape:current-layer="g34" />
  <g
     transform="matrix(0.1,0,0,-0.1,-134.88756,480.16931)"
     fill="#000000"
     stroke="none"
     id="g34">
    <g
       id="g446"
       transform="translate(-9.7351331,-97.351331)"
       style="fill:#000000;fill-opacity:1">
      <path
         d="m 4482,4885 c -46,-7 -86,-16 -90,-19 -3,-4 -1,-16 6,-26 16,-27 16,-27 -23,-34 -41,-8 -46,-30 -14,-70 22,-29 19,-33 -36,-38 -40,-4 -43,-29 -11,-78 14,-22 26,-41 26,-44 0,-2 -25,-7 -55,-11 -51,-6 -55,-8 -49,-28 10,-34 43,-95 54,-102 22,-14 7,-23 -50,-29 -70,-8 -72,-14 -36,-91 28,-62 74,-109 135,-139 41,-21 101,-41 101,-34 0,2 -4,17 -9,35 -9,30 -8,31 25,38 38,7 40,11 19,39 -23,30 -19,56 8,56 29,0 40,9 28,24 -5,6 -12,21 -15,33 -6,17 -2,22 16,25 22,3 23,6 11,51 -4,12 0,17 17,17 16,0 20,4 15,19 -4,15 1,19 32,25 61,10 83,7 83,-9 0,-25 27,-17 38,13 13,34 21,93 15,110 -3,9 -16,11 -41,6 -32,-6 -34,-5 -27,12 4,10 10,41 13,68 l 5,49 -37,-7 c -35,-7 -36,-7 -26,19 6,15 10,38 10,52 0,23 -3,25 -30,19 -31,-6 -31,-5 -24,29 3,19 5,35 3,34 -2,-1 -41,-7 -87,-14 z"
         id="path2"
         style="fill:#0000ff;fill-opacity:1" />
      <path
         d="m 4882.0974,4603 c -35,-4 -40,-12 -22,-30 7,-7 3,-12 -15,-17 -30,-7 -32,-14 -12,-42 14,-18 12,-19 -51,-29 -61,-9 -67,-13 -74,-38 -6,-23 -4,-27 13,-27 17,0 20,-5 16,-35 -3,-28 -1,-35 13,-35 25,0 29,-11 19,-53 -7,-35 -7,-37 17,-37 23,0 24,-3 21,-47 l -3,-47 48,-15 47,-15 v -89 -90 l -112,6 c -62,4 -146,7 -185,7 h -73 v 48 c 0,42 -4,51 -29,70 l -29,21 2,-66 1,-67 -130,-2 c -72,-2 -174,-5 -227,-9 l -98,-6 v 48 c 1,46 2,49 40,66 44,21 75,64 86,121 6,37 6,39 -15,33 -21,-5 -22,-3 -16,34 6,35 5,39 -14,39 -17,0 -20,4 -14,30 4,24 2,30 -12,30 -13,0 -16,6 -12,21 4,15 0,23 -13,26 -12,3 -16,11 -13,21 5,12 1,14 -27,9 -18,-4 -39,-7 -47,-7 -10,0 -12,-6 -8,-20 5,-16 2,-20 -14,-20 -22,0 -28,-14 -11,-25 17,-11 11,-25 -11,-25 -22,0 -22,-8 -4,-52 6,-15 2,-18 -19,-18 -29,0 -33,-16 -11,-46 21,-28 18,-34 -16,-34 -27,0 -30,-3 -24,-22 15,-52 62,-93 128,-112 13,-4 17,-16 17,-50 0,-51 12,-46 -155,-66 -279,-33 -485,-88 -485,-130 0,-49 185,-84 638,-120 631,-50 818,-82 716,-120 -46,-18 -201,-39 -514,-70 -529,-52 -551,-61 -250,-109 300,-48 613,-77 928,-87 138,-5 194,-3 187,4 -5,6 -104,29 -218,51 -181,36 -267,58 -232,61 6,1 28,3 50,5 22,2 110,9 195,15 412,30 761,86 835,134 83,54 -47,100 -500,175 -241,40 -392,74 -408,90 -5,5 1,15 14,23 19,10 102,13 369,15 395,2 359,1 340,12 -8,5 -64,14 -125,21 -154,16 -155,16 -155,44 0,17 11,30 35,44 35,22 59,72 37,80 -7,2 -12,15 -12,28 0,13 -5,24 -11,24 -6,0 -9,7 -5,15 3,8 1,15 -4,15 -6,0 -10,7 -10,15 0,8 -5,15 -11,15 -5,0 -7,5 -3,11 4,8 -1,9 -17,4 -30,-10 -52,-32 -44,-45 3,-5 -1,-10 -10,-10 -13,0 -14,-4 -5,-20 9,-16 8,-20 -6,-20 -12,0 -15,-6 -10,-25 5,-18 2,-25 -9,-25 -33,0 0,-51 45,-70 22,-9 30,-19 30,-38 0,-24 -2,-24 -47,-19 -27,4 -87,9 -135,13 l -88,7 v 97 c 0,98 0,98 27,105 64,16 117,82 124,155 4,32 1,35 -23,38 -24,3 -26,6 -18,28 6,14 10,36 10,48 0,19 -4,22 -25,18 -24,-4 -25,-3 -15,22 15,41 12,56 -11,56 -18,0 -20,4 -14,31 6,28 5,30 -14,24 -17,-5 -21,-2 -21,14 0,22 -5,23 -77,14 z"
         id="path4"
         style="fill:#0000ff;fill-opacity:1" />
    </g>
    <text
       xml:space="preserve"
       style="font-style:normal;font-variant:normal;font-weight:normal;font-stretch:normal;font-size:862.219px;line-height:1.25;font-family:'Darumadrop One';-inkscape-font-specification:'Darumadrop One';fill:#0000ff;fill-opacity:1;stroke:none;stroke-width:21.5555"
       x="1314.3868"
       y="-2370.301"
       id="text748"
       transform="scale(1,-1)"><tspan
         sodipodi:role="line"
         id="tspan746"
         style="font-style:normal;font-variant:normal;font-weight:normal;font-stretch:normal;font-family:'Darumadrop One';-inkscape-font-specification:'Darumadrop One';stroke-width:21.5555;fill:#0000ff;fill-opacity:1"
         x="1314.3868"
         y="-2370.301">EHS-SUPPORT.DE</tspan></text>
  </g>
</svg>
