<?xml version="1.0" encoding="UTF-8" standalone="no"?>
<svg
   version="1.0"
   width="633.94727pt"
   height="246.50186pt"
   viewBox="0 0 633.94727 246.50186"
   preserveAspectRatio="xMidYMid"
   id="svg36"
   xmlns="http://www.w3.org/2000/svg"
   xmlns:svg="http://www.w3.org/2000/svg">
  <defs
     id="defs40" />
  <g
     transform="matrix(0.1,0,0,-0.1,-134.88756,480.16931)"
     fill="#000000"
     stroke="none"
     id="g34">
    <g
       id="g446"
       transform="translate(-9.7351331,-97.351331)"
       style="fill:#000000;fill-opacity:1">
      <path
         d="m 4482,4885 c -46,-7 -86,-16 -90,-19 -3,-4 -1,-16 6,-26 16,-27 16,-27 -23,-34 -41,-8 -46,-30 -14,-70 22,-29 19,-33 -36,-38 -40,-4 -43,-29 -11,-78 14,-22 26,-41 26,-44 0,-2 -25,-7 -55,-11 -51,-6 -55,-8 -49,-28 10,-34 43,-95 54,-102 22,-14 7,-23 -50,-29 -70,-8 -72,-14 -36,-91 28,-62 74,-109 135,-139 41,-21 101,-41 101,-34 0,2 -4,17 -9,35 -9,30 -8,31 25,38 38,7 40,11 19,39 -23,30 -19,56 8,56 29,0 40,9 28,24 -5,6 -12,21 -15,33 -6,17 -2,22 16,25 22,3 23,6 11,51 -4,12 0,17 17,17 16,0 20,4 15,19 -4,15 1,19 32,25 61,10 83,7 83,-9 0,-25 27,-17 38,13 13,34 21,93 15,110 -3,9 -16,11 -41,6 -32,-6 -34,-5 -27,12 4,10 10,41 13,68 l 5,49 -37,-7 c -35,-7 -36,-7 -26,19 6,15 10,38 10,52 0,23 -3,25 -30,19 -31,-6 -31,-5 -24,29 3,19 5,35 3,34 -2,-1 -41,-7 -87,-14 z"
         id="path2"
         style="fill:#0000ff;fill-opacity:1" />
      <path
         d="m 4882.0974,4603 c -35,-4 -40,-12 -22,-30 7,-7 3,-12 -15,-17 -30,-7 -32,-14 -12,-42 14,-18 12,-19 -51,-29 -61,-9 -67,-13 -74,-38 -6,-23 -4,-27 13,-27 17,0 20,-5 16,-35 -3,-28 -1,-35 13,-35 25,0 29,-11 19,-53 -7,-35 -7,-37 17,-37 23,0 24,-3 21,-47 l -3,-47 48,-15 47,-15 v -89 -90 l -112,6 c -62,4 -146,7 -185,7 h -73 v 48 c 0,42 -4,51 -29,70 l -29,21 2,-66 1,-67 -130,-2 c -72,-2 -174,-5 -227,-9 l -98,-6 v 48 c 1,46 2,49 40,66 44,21 75,64 86,121 6,37 6,39 -15,33 -21,-5 -22,-3 -16,34 6,35 5,39 -14,39 -17,0 -20,4 -14,30 4,24 2,30 -12,30 -13,0 -16,6 -12,21 4,15 0,23 -13,26 -12,3 -16,11 -13,21 5,12 1,14 -27,9 -18,-4 -39,-7 -47,-7 -10,0 -12,-6 -8,-20 5,-16 2,-20 -14,-20 -22,0 -28,-14 -11,-25 17,-11 11,-25 -11,-25 -22,0 -22,-8 -4,-52 6,-15 2,-18 -19,-18 -29,0 -33,-16 -11,-46 21,-28 18,-34 -16,-34 -27,0 -30,-3 -24,-22 15,-52 62,-93 128,-112 13,-4 17,-16 17,-50 0,-51 12,-46 -155,-66 -279,-33 -485,-88 -485,-130 0,-49 185,-84 638,-120 631,-50 818,-82 716,-120 -46,-18 -201,-39 -514,-70 -529,-52 -551,-61 -250,-109 300,-48 613,-77 928,-87 138,-5 194,-3 187,4 -5,6 -104,29 -218,51 -181,36 -267,58 -232,61 6,1 28,3 50,5 22,2 110,9 195,15 412,30 761,86 835,134 83,54 -47,100 -500,175 -241,40 -392,74 -408,90 -5,5 1,15 14,23 19,10 102,13 369,15 395,2 359,1 340,12 -8,5 -64,14 -125,21 -154,16 -155,16 -155,44 0,17 11,30 35,44 35,22 59,72 37,80 -7,2 -12,15 -12,28 0,13 -5,24 -11,24 -6,0 -9,7 -5,15 3,8 1,15 -4,15 -6,0 -10,7 -10,15 0,8 -5,15 -11,15 -5,0 -7,5 -3,11 4,8 -1,9 -17,4 -30,-10 -52,-32 -44,-45 3,-5 -1,-10 -10,-10 -13,0 -14,-4 -5,-20 9,-16 8,-20 -6,-20 -12,0 -15,-6 -10,-25 5,-18 2,-25 -9,-25 -33,0 0,-51 45,-70 22,-9 30,-19 30,-38 0,-24 -2,-24 -47,-19 -27,4 -87,9 -135,13 l -88,7 v 97 c 0,98 0,98 27,105 64,16 117,82 124,155 4,32 1,35 -23,38 -24,3 -26,6 -18,28 6,14 10,36 10,48 0,19 -4,22 -25,18 -24,-4 -25,-3 -15,22 15,41 12,56 -11,56 -18,0 -20,4 -14,31 6,28 5,30 -14,24 -17,-5 -21,-2 -21,14 0,22 -5,23 -77,14 z"
         id="path4"
         style="fill:#0000ff;fill-opacity:1" />
    </g>
    <g
       aria-label="EHS-SUPPORT.DE"
       transform="scale(1,-1)"
       id="text748"
       style="font-size:862.219px;line-height:1.25;font-family:'Darumadrop One';-inkscape-font-specification:'Darumadrop One';fill:#0000ff;stroke-width:21.5555">
      <path
         d="m 1695.4876,-2785.0284 q -5.1733,4.3111 -12.071,4.3111 -6.8978,0 -13.7955,0 -6.0356,0 -10.3467,2.5867 l -14.6577,-2.5867 q -3.4489,0.8623 -6.0355,1.7245 -2.5867,0 -6.8978,0.8622 -2.5866,0 -9.4844,-1.7244 -10.3466,-1.7245 -18.1066,0.8622 -10.3466,3.4488 -23.2799,2.5866 -7.76,-1.7244 -16.3822,0.8622 -7.7599,1.7245 -14.6577,3.4489 -3.4488,-0.8622 -6.8977,-0.8622 -2.5867,-0.8622 -4.3111,-1.7244 -5.1733,0.8622 -10.3466,3.4488 -4.3111,2.5867 -9.4845,6.0356 -2.5866,3.4489 -5.1733,8.6222 -1.7244,4.3111 -5.1733,8.6222 -0.8622,10.3466 -0.8622,21.5554 0,10.3467 -0.8622,19.8311 -0.8622,6.8977 -5.1733,11.2088 -3.4489,3.4489 -3.4489,8.6222 2.5866,6.8978 9.4844,7.76 5.1733,1.7244 11.2088,2.5866 6.0356,0 12.0711,0.8623 6.8978,-2.5867 13.7955,-5.1734 6.8978,-2.5866 12.9333,-5.1733 9.4844,0 16.3822,0 6.8977,0 13.7955,-0.8622 2.5866,0 5.1733,0 2.5866,-0.8622 5.1733,-1.7244 12.0711,-5.1733 24.1421,-5.1733 12.0711,0 24.1422,1.7244 8.6221,2.5866 11.2088,12.9333 0,1.7244 0,4.3111 0.8622,1.7244 1.7244,4.3111 -0.8622,2.5866 -1.7244,6.0355 -0.8622,3.4489 -0.8622,7.76 0.8622,13.7955 -0.8622,27.591 -0.8623,13.7955 0,28.4532 0.8622,6.0355 -1.7245,12.0711 -1.7244,6.0355 -4.3111,10.3466 l -2.5866,1.7244 q -5.1733,0.8623 -9.4844,0 -3.4489,-1.7244 -7.76,-1.7244 -5.1733,0 -8.6222,2.5867 -3.4489,2.5866 -7.76,4.311 -6.0355,0.8623 -12.9333,0.8623 -6.0355,0 -12.9332,-0.8623 -3.4489,-1.7244 -7.76,0 -3.4489,1.7245 -6.8978,3.4489 -7.7599,-0.8622 -15.5199,-1.7244 -6.8978,-1.7245 -13.7955,-5.1733 -5.1733,0 -10.3466,0 -5.1733,0 -11.2089,0.8622 -11.2088,0.8622 -23.2799,0 -9.4844,-1.7244 -17.2444,5.1733 -1.7244,0.8622 -3.4489,5.1733 -1.7244,3.4489 -0.8622,6.0356 3.4489,6.8977 3.4489,14.6577 0.8622,7.7599 0.8622,14.6577 0.8622,2.5867 1.7245,4.3111 0.8622,1.7244 1.7244,3.4489 -0.8622,1.7244 -2.5867,3.4488 -0.8622,1.7245 -1.7244,3.4489 -3.4489,8.6222 4.3111,10.3466 10.3466,2.5867 20.6933,5.1734 11.2088,2.5866 22.4177,4.3111 2.5866,-0.8623 6.0355,-1.7245 3.4489,-0.8622 6.0355,-0.8622 12.0711,0 24.1421,-1.7244 12.9333,-2.5867 25.0044,-2.5867 2.5867,0 6.0355,0 3.4489,-0.8622 6.8978,0 6.8977,2.5867 14.6577,3.4489 7.76,0.8622 15.5199,0.8622 5.1734,0 9.4845,0.8622 5.1733,0 10.3466,0.8622 6.8977,1.7245 6.8977,6.8978 -0.8622,4.3111 -3.4488,9.4844 -1.7245,4.3111 -3.4489,7.76 -0.8622,6.0355 1.7244,9.4844 2.5867,3.4489 3.4489,6.8977 -0.8622,8.6222 -2.5867,16.3822 -0.8622,7.76 -5.1733,13.7955 0,5.1733 2.5867,7.76 2.5866,2.5866 3.4489,6.0355 -1.7245,1.7244 -3.4489,5.1733 -0.8622,2.5867 -2.5867,6.0355 1.7245,6.8978 2.5867,14.6578 1.7244,7.7599 -3.4489,14.6577 -2.5866,0.8622 -6.0355,2.5867 -2.5867,2.5866 -6.0356,1.7244 -8.6221,-1.7244 -17.2443,0 -7.76,1.7244 -15.52,2.5866 -6.0355,0.8623 -11.2088,3.4489 -5.1733,2.5867 -10.3467,4.3111 -8.6221,1.7245 -17.2443,2.5867 -8.6222,0.8622 -18.1066,2.5866 l -12.0711,-2.5866 q -7.76,0.8622 -18.1066,2.5866 l -23.2799,-5.1733 q -3.4489,-2.5866 -6.8978,-6.0355 -2.5866,-2.5867 -6.8977,-4.3111 -0.8622,-0.8622 -3.4489,-0.8622 -1.7244,0.8622 -1.7244,1.7244 0,8.6222 -9.4844,11.2089 -4.3111,-1.7245 -9.4844,-2.5867 -5.1734,-0.8622 -9.4845,-1.7244 -4.311,-0.8623 -9.4844,-0.8623 -5.1733,0.8623 -9.4844,0.8623 -10.3466,0 -20.6932,-2.5867 -9.4844,-2.5867 -19.8311,-11.2088 -0.8622,-2.5867 -2.5866,-5.1734 -1.7245,-2.5866 -3.4489,-6.0355 -3.4489,-1.7244 -6.8977,-4.3111 -2.5867,-2.5866 -6.0356,-4.3111 l -9.4844,-5.1733 q -3.4489,-5.1733 -3.4489,-9.4844 0,-5.1733 -0.8622,-9.4844 -0.8622,-4.3111 -1.7244,-8.6222 0,-5.1733 -0.8622,-10.3466 1.7244,-10.3467 1.7244,-20.6933 0.8622,-10.3466 0,-21.5555 -0.8622,-9.4844 0,-18.9688 1.7244,-10.3466 5.1733,-19.831 -0.8622,-3.4489 -2.5866,-6.0355 -0.8623,-2.5867 -0.8623,-6.0356 0,-4.3111 1.7245,-8.6222 1.7244,-4.3111 0,-8.6222 0,-1.7244 0.8622,-2.5866 1.7244,-0.8622 2.5866,-1.7245 2.5867,-6.0355 -1.7244,-6.8977 -8.6222,-2.5867 -8.6222,-8.6222 1.7245,-5.1733 0.8622,-10.3466 -0.8622,-5.1733 -0.8622,-11.2089 0,-4.3111 0.8622,-8.6222 0.8623,-4.3111 -0.8622,-8.6222 0,-0.8622 -0.8622,-2.5866 0,-1.7244 0.8622,-2.5867 4.3111,-9.4844 2.5867,-18.1066 -0.8622,-8.6222 -3.4489,-17.2443 3.4489,-7.76 4.3111,-14.6578 0.8622,-7.7599 0.8622,-15.5199 v -23.2799 q 0.8622,-2.5867 0.8622,-5.1733 0,-3.4489 0.8623,-5.1734 6.8977,-18.9688 -0.8623,-39.662 -0.8622,-1.7245 -0.8622,-5.1733 1.7245,-5.1734 3.4489,-9.4844 2.5866,-5.1734 3.4489,-10.3467 1.7244,-6.8977 3.4488,-14.6577 2.5867,-7.76 3.4489,-14.6577 v -6.0356 q -0.8622,-4.3111 -0.8622,-8.6221 0.8622,-5.1734 0,-9.4845 -0.8622,-4.311 -0.8622,-8.6221 0.8622,-4.3111 0.8622,-7.76 0,-3.4489 -0.8622,-5.1733 0,-2.5867 -0.8622,-5.1733 1.7244,-6.0356 6.8977,-9.4845 5.1733,-3.4488 6.0355,-8.6221 10.3467,-6.8978 20.6933,-8.6222 11.2088,-2.5867 20.6933,-7.76 9.4844,-5.1733 19.831,-6.0355 10.3466,-0.8623 19.831,-4.3111 6.0356,1.7244 11.2089,3.4488 6.0355,1.7245 12.071,3.4489 3.4489,0 6.8978,0 4.3111,-0.8622 7.76,-1.7244 6.0355,0.8622 11.2088,2.5866 5.1733,1.7245 11.2089,0.8623 9.4844,-2.5867 18.1066,0 4.3111,0 7.7599,0.8622 3.4489,0 6.8978,0.8622 12.9333,-9.4844 27.591,-5.1733 6.8977,2.5866 13.7955,1.7244 6.8977,-0.8622 13.7955,1.7245 6.8978,1.7244 12.9333,1.7244 6.8977,-0.8622 12.9333,-0.8622 7.7599,-1.7245 15.5199,0 6.8978,1.7244 14.6577,2.5866 8.6222,0.8623 15.52,0.8623 4.3111,0 12.071,6.0355 12.0711,47.422 4.3111,93.1196 z"
         id="path6033" />
      <path
         d="m 2261.9639,-2831.5882 q -0.8622,3.4489 -0.8622,6.0355 0,2.5867 0,5.1734 0,2.5866 0,6.0355 0.8622,2.5866 0,5.1733 -0.8622,5.1733 0,9.4844 0.8622,4.3111 -0.8622,8.6222 -0.8622,1.7244 -1.7245,3.4489 -0.8622,0.8622 -0.8622,2.5866 1.7245,15.52 -1.7244,30.1777 -3.4489,14.6577 -6.0355,30.1777 l 6.0355,18.1066 q -0.8622,5.1733 -3.4489,10.3466 -1.7244,5.1733 -3.4489,11.2088 0.8623,5.1734 0.8623,11.2089 0.8622,5.1733 1.7244,11.2088 -1.7244,5.1733 -2.5867,11.2089 -0.8622,6.0355 0.8623,12.071 3.4488,9.4845 1.7244,19.8311 -0.8622,9.4844 0,18.9688 0,0.8622 0,2.5867 0,1.7244 -0.8622,2.5866 -2.5867,6.0356 -2.5867,13.7955 0,6.8978 0.8622,13.7955 1.7245,8.6222 1.7245,16.3822 0.8622,7.76 5.1733,15.5199 0.8622,6.8978 0.8622,14.6578 0,7.7599 0.8622,14.6577 -1.7244,3.4488 -4.3111,7.7599 -2.5866,3.4489 -4.3111,6.8978 -0.8622,6.8977 -0.8622,13.7955 0,6.0355 3.4489,12.9333 0.8622,0.8622 0.8622,7.76 0.8622,6.0355 1.7244,12.9332 0.8623,6.0356 0.8623,6.8978 6.8977,8.6222 0,18.1066 -0.8623,1.7244 -2.5867,3.4489 -0.8622,1.7244 -1.7244,4.3111 1.7244,6.0355 3.4488,12.071 1.7245,5.1733 2.5867,11.2089 1.7244,7.7599 -0.8622,11.2088 -2.5867,3.4489 -7.76,7.76 -0.8622,0.8622 -3.4489,0.8622 -2.5866,0.8622 -4.3111,2.5867 -3.4488,0 -5.1733,0.8622 -3.4488,0.8622 -6.8977,0.8622 -2.5867,0.8622 -6.8978,1.7244 l -9.4844,-6.0355 q -3.4489,-0.8622 -10.3466,1.7245 -6.0355,3.4488 -11.2089,-0.8623 -0.8622,-2.5866 -7.7599,-4.3111 -6.8978,-2.5866 -6.0356,0 v 0.8623 q 0,0 -7.7599,2.5866 -7.76,3.4489 -12.0711,6.0355 -6.8978,-0.8622 -17.2444,-6.8977 -9.4844,-6.0355 -13.7955,-6.0355 -3.4489,-4.3111 -4.3111,-7.76 0,-3.4489 0,-7.76 0.8622,-4.3111 1.7245,-7.76 0.8622,-4.311 1.7244,-8.6221 4.3111,-8.6222 0,-20.6933 -1.7244,-6.0355 -4.3111,-11.2088 -1.7244,-6.0356 -2.5867,-12.0711 -0.8622,-2.5867 -0.8622,-9.4844 0,-6.8978 -1.7244,-8.6222 -0.8622,-6.0355 -0.8622,-12.0711 0.8622,-6.0355 -2.5867,-12.071 -2.5866,-8.6222 0.8622,-18.1066 1.7245,-3.4489 1.7245,-6.0356 0.8622,-3.4488 1.7244,-5.1733 1.7244,-10.3466 -1.7244,-15.5199 -8.6222,-14.6578 -18.1066,-21.5555 -6.0356,-0.8622 -12.9333,-1.7244 -6.8978,-0.8623 -13.7955,-0.8623 -0.8622,0 -3.4489,0 -2.5866,-0.8622 -6.0355,-1.7244 -12.9333,-2.5867 -25.0044,0 -11.2088,2.5867 -25.8665,3.4489 -9.4845,0 -18.1066,-6.8978 -0.8623,0.8622 -3.4489,2.5867 -2.5867,0.8622 -4.3111,2.5866 -8.6222,-5.1733 -19.8311,-7.7599 -5.1733,-1.7245 -11.2088,-1.7245 -5.1733,-0.8622 -12.0711,-1.7244 -6.8977,1.7244 -8.6222,12.0711 v 7.7599 q 1.7245,11.2089 0.8623,22.4177 -0.8623,11.2089 -5.1734,21.5555 0,1.7244 0,4.3111 0,2.5866 -0.8622,4.3111 2.5867,3.4489 4.3111,7.76 1.7245,3.4488 3.4489,6.8977 -2.5867,8.6222 -7.76,18.1066 0.8622,6.0355 0.8622,12.0711 0.8623,6.0355 1.7245,12.071 0.8622,1.7245 1.7244,4.3111 0.8622,1.7245 1.7245,3.4489 9.4844,14.6577 -2.5867,27.591 -0.8622,0.8622 -0.8622,1.7245 0,0.8622 -1.7245,2.5866 0,3.4489 0,7.76 0,4.3111 -0.8622,9.4844 0,3.4489 -2.5866,8.6222 0,0.8622 -1.7245,1.7244 -0.8622,0.8622 -2.5866,2.5867 -12.0711,4.3111 -21.5555,6.8977 -13.7955,1.7245 -23.2799,-0.8622 -8.6222,-1.7244 -22.4177,-6.8977 -9.4844,1.7244 -19.831,2.5866 -9.4844,0 -20.6933,-3.4489 -4.3111,-1.7244 -10.3466,-5.1733 -5.1733,-3.4488 -11.2089,-6.8977 -6.0355,-2.5867 -12.071,-5.1733 -5.1734,-2.5867 -10.3467,-4.3111 -2.5866,-7.76 -0.8622,-13.7955 1.7245,-5.1734 2.5867,-11.2089 1.7244,-6.0355 3.4488,-11.2088 4.3111,-11.2089 4.3111,-21.5555 -3.4488,-4.3111 0.8623,-11.2089 3.4488,-6.8977 1.7244,-14.6577 -0.8622,-7.7599 0,-14.6577 -3.4489,-12.0711 -1.7244,-24.1421 1.7244,-12.9333 3.4488,-24.1422 0.8623,-6.8977 2.5867,-12.071 1.7244,-5.1733 0,-10.3467 1.7244,-6.8977 6.0355,-10.3466 4.3111,-4.3111 4.3111,-9.4844 0.8622,-6.8977 -1.7244,-11.2088 -1.7245,-5.1734 -2.5867,-11.2089 0,-2.5866 0,-6.0355 0.8622,-4.3111 0.8622,-7.76 0,-4.3111 0,-7.76 0,-3.4488 0.8623,-6.0355 1.7244,-6.8977 -0.8623,-13.7955 -1.7244,-6.8978 -0.8622,-14.6577 0,-1.7245 -0.8622,-3.4489 -0.8622,-1.7244 -1.7244,-4.3111 -0.8622,-6.8977 0,-14.6577 0.8622,-7.76 0.8622,-14.6577 0,-7.76 -0.8622,-14.6578 -0.8622,-6.8977 0,-12.9332 0,-1.7245 0,-1.7245 0.8622,-0.8622 0.8622,-1.7244 1.7244,-0.8622 3.4489,0 2.5866,0.8622 3.4488,0 4.3111,-9.4844 1.7245,-18.1066 -2.5867,-9.4844 -3.4489,-18.1066 2.5867,-4.3111 2.5867,-10.3466 0,-6.8978 -2.5867,-7.76 0,-6.0356 -0.8622,-12.0711 0,-6.0355 -0.8622,-12.0711 -0.8623,-6.8977 -2.5867,-12.9332 -1.7244,-6.0356 -0.8622,-12.9333 1.7244,-5.1733 3.4489,-10.3466 1.7244,-5.1734 5.1733,-10.3467 3.4489,-0.8622 7.76,-1.7244 5.1733,-0.8622 9.4844,-3.4489 4.3111,-1.7244 6.8977,-4.3111 2.5867,-2.5866 6.0355,-3.4489 6.8978,-0.8622 12.0711,1.7245 6.0355,2.5866 11.2089,3.4489 12.071,0.8622 18.9688,-1.7245 6.8977,-2.5866 17.2444,-10.3466 4.3111,2.5866 8.6221,5.1733 5.1734,2.5867 8.6222,5.1733 4.3111,1.7245 6.8978,3.4489 3.4489,1.7244 6.8977,3.4489 6.8978,4.3111 6.8978,12.9333 0.8622,6.0355 0.8622,11.2088 0,5.1733 0.8622,10.3466 0,6.8978 0,13.7955 0.8622,6.8978 3.4489,13.7955 0.8622,3.4489 0.8622,6.8978 0,3.4489 0.8622,6.8977 0.8623,11.2089 0,31.0399 0,18.9688 -4.3111,29.3155 -0.8622,2.5866 -0.8622,6.0355 4.3111,6.0355 9.4844,4.3111 6.0356,-1.7244 11.2089,-1.7244 9.4844,4.3111 14.6577,9.4844 5.1733,5.1733 14.6577,10.3466 9.4844,-4.3111 17.2444,-3.4489 8.6222,0 18.9688,-3.4489 h 40.5243 q 22.4177,0 43.9732,-5.1733 4.3111,-1.7244 7.76,-1.7244 4.3111,-0.8622 7.7599,-1.7244 1.7245,-0.8623 3.4489,-1.7245 1.7244,-0.8622 2.5867,-1.7244 1.7244,-6.0356 -0.8623,-18.9688 -2.5866,-13.7955 -2.5866,-18.9689 -0.8622,-4.3111 -2.5867,-9.4844 -0.8622,-5.1733 -0.8622,-9.4844 1.7245,-9.4844 0,-18.1066 -0.8622,-8.6222 -0.8622,-17.2444 0,-4.3111 -0.8622,-9.4844 0,-5.1733 -0.8622,-9.4844 -5.1734,-18.1066 -0.8623,-38.7998 13.7955,-12.0711 35.351,-14.6578 9.4844,-2.5866 18.1066,0 9.4844,1.7245 18.1066,3.4489 4.3111,-1.7244 9.4844,-3.4489 5.1733,-2.5866 12.0711,-6.0355 9.4844,0 12.9333,0 4.3111,0 14.6577,-0.8622 6.8977,0 10.3466,-0.8622 3.4489,-1.7245 11.2089,-2.5867 0.8622,0.8622 3.4488,6.8978 3.4489,6.0355 3.4489,9.4844 -0.8622,0.8622 0.8622,9.4844 2.5867,7.76 1.7245,13.7955 0,5.1733 0.8622,10.3466 0.8622,4.3111 0.8622,8.6222 z"
         id="path6035" />
      <path
         d="m 2653.4101,-2803.9972 q -5.1733,11.2089 -13.7955,18.9688 -8.6222,6.8978 -14.6577,16.3822 -6.8978,1.7244 -13.7955,6.0355 -6.0355,4.3111 -11.2089,8.6222 -8.6222,5.1733 -15.5199,0 -3.4489,-1.7244 -6.0355,-3.4489 -1.7245,-2.5866 -5.1734,-4.311 -6.8977,-6.0356 -18.1065,-4.3111 -0.8623,0.8622 -2.5867,-0.8623 v -8.6222 q -0.8622,-0.8622 -2.5867,-2.5866 -0.8622,-1.7244 -2.5866,-1.7244 -17.2444,-6.8978 -32.7643,-0.8623 -5.1734,0.8623 -10.3467,2.5867 -5.1733,1.7244 -10.3466,3.4489 -3.4489,5.1733 -6.8977,10.3466 -2.5867,5.1733 -6.0356,9.4844 0.8622,6.8978 0.8622,13.7955 0.8623,6.8978 1.7245,13.7955 4.3111,5.1733 7.7599,11.2089 4.3111,5.1733 7.76,11.2088 7.76,6.0355 16.3822,12.0711 8.6222,5.1733 16.3821,12.071 5.1734,3.4489 10.3467,6.0356 6.0355,1.7244 10.3466,6.0355 4.3111,4.3111 7.76,7.76 4.3111,2.5866 7.7599,6.8977 2.5867,0.8622 5.1733,2.5867 2.5867,1.7244 5.1734,3.4489 14.6577,9.4844 22.4177,25.8665 4.3111,6.8978 8.6221,14.6578 5.1734,7.7599 9.4845,14.6577 6.0355,5.1733 7.7599,12.071 2.5867,6.8978 5.1733,13.7955 0.8623,0.8623 0.8623,3.4489 1.7244,10.3466 5.1733,19.8311 4.3111,9.4844 8.6222,18.9688 2.5866,11.2088 2.5866,22.4177 0.8622,10.3466 -0.8622,20.6932 0,8.6222 -2.5867,17.2444 -1.7244,7.76 -5.1733,14.6577 -0.8622,0.8622 -0.8622,1.7245 0,0.8622 -1.7244,2.5866 -7.76,7.76 -12.9333,17.2444 -4.3111,9.4844 -10.3466,18.9688 -0.8623,0.8622 -0.8623,2.5867 0,0.8622 -1.7244,1.7244 -8.6222,6.0355 -14.6577,12.9333 -5.1733,6.8978 -12.0711,13.7955 -3.4489,3.4489 -8.6222,6.0355 -5.1733,2.5867 -9.4844,6.0356 l -18.1066,8.6222 q -8.6222,0.8622 -18.1066,2.5866 -8.6222,1.7245 -18.1066,6.0355 -6.0355,3.4489 -13.7955,5.1734 -6.8977,1.7244 -13.7955,3.4488 -3.4489,0.8623 -6.8977,1.7245 -3.4489,0.8622 -6.8978,1.7244 -11.2088,-8.6222 -25.0043,-8.6222 -9.4845,0 -16.3822,-3.4489 -10.3466,-4.311 -19.831,-9.4844 -9.4844,-4.3111 -17.2444,-12.071 -5.1733,-4.3111 -10.3466,-7.76 -5.1734,-3.4489 -9.4845,-6.8977 -3.4488,-3.4489 -8.6221,-4.3111 -4.3111,-1.7245 -8.6222,-3.4489 -6.0356,-4.3111 -6.8978,-9.4844 0.8622,-6.8978 5.1733,-12.9333 5.1733,-6.0355 8.6222,-12.9333 0,-5.1733 2.5867,-12.9333 7.7599,-10.3466 16.3821,-20.6932 8.6222,-11.2089 17.2444,-22.4177 3.4489,-2.5867 7.76,-5.1733 4.3111,-3.4489 9.4844,-6.8978 17.2444,4.3111 32.7643,9.4844 15.52,5.1733 31.9021,9.4844 3.4489,-0.8622 5.1733,-1.7244 1.7245,-1.7245 2.5867,-2.5867 2.5866,-0.8622 4.3111,-1.7244 1.7244,-0.8622 2.5866,-1.7245 h 15.52 q 0.8622,-1.7244 1.7244,-2.5866 1.7245,-1.7244 2.5867,-3.4489 3.4489,-8.6222 6.8977,-16.3821 3.4489,-7.76 4.3111,-17.2444 -1.7244,-6.8978 -4.3111,-14.6577 -1.7244,-7.76 -7.7599,-15.52 -3.4489,-2.5866 -7.76,-6.0355 -4.3111,-3.4489 -8.6222,-6.8978 -14.6577,-1.7244 -30.1777,-7.7599 -14.6577,-6.0356 -29.3154,-6.0356 -6.0355,-1.7244 -9.4844,-5.1733 -3.4489,-4.3111 -7.76,-7.76 -6.0355,-1.7244 -12.9333,-2.5866 -6.8977,-0.8622 -11.2088,-6.8978 -13.7955,-7.7599 -23.2799,-11.2088 -4.3111,-5.1733 -8.6222,-10.3466 -3.4489,-5.1734 -7.76,-9.4845 -3.4489,-4.3111 -6.8978,-10.3466 -2.5866,-6.8977 -6.8977,-12.9333 -3.4489,-4.3111 -6.0355,-9.4844 -2.5867,-6.0355 -5.1733,-12.071 -2.5867,-12.0711 -5.1734,-25.8666 1.7245,-9.4844 2.5867,-18.9688 1.7244,-10.3467 2.5867,-20.6933 l -3.4489,-8.6222 q 3.4489,-1.7244 5.1733,-5.1733 1.7244,-3.4489 3.4489,-6.8977 1.7244,-5.1734 4.3111,-8.6222 2.5866,-3.4489 1.7244,-9.4844 0,-16.3822 8.6222,-30.1777 1.7244,-3.4489 2.5866,-6.0355 1.7245,-2.5867 2.5867,-5.1734 4.3111,-2.5866 6.8978,-5.1733 3.4488,-3.4488 4.311,-4.3111 4.3111,-4.3111 3.4489,-7.7599 -0.8622,-4.3111 0,-7.76 3.4489,-5.1733 7.76,-10.3466 4.3111,-5.1733 9.4844,-11.2089 6.0355,-4.3111 12.9333,-6.8977 6.8977,-3.4489 12.9333,-9.4844 1.7244,-2.5867 4.3111,-3.4489 2.5866,-1.7245 6.0355,-2.5867 4.3111,-2.5866 9.4844,-4.3111 5.1733,-1.7244 10.3466,-4.3111 8.6222,-1.7244 17.2444,-2.5866 9.4844,-0.8622 18.1066,-1.7245 0.8622,0 1.7245,0 1.7244,-0.8622 3.4488,0 9.4844,3.4489 18.9688,0 10.3467,-3.4488 20.6933,-2.5866 9.4844,0 18.1066,2.5866 9.4844,2.5867 18.1066,4.3111 9.4844,6.8978 18.9688,12.9333 9.4844,5.1733 20.6933,8.6222 3.4489,3.4489 6.0355,7.76 3.4489,3.4489 6.8978,7.76 3.4488,3.4488 6.8977,6.0355 3.4489,2.5866 6.0355,6.0355 6.8978,12.9333 12.9333,25.8666 6.8978,12.0711 12.9333,24.1421 z"
         id="path6037" />
      <path
         d="m 2968.1197,-2641.0378 q -0.8622,4.3111 -2.5866,9.4844 -0.8623,4.3111 -1.7245,9.4844 -0.8622,8.6222 0,16.3822 1.7245,7.76 0.8622,15.5199 -0.8622,1.7245 -1.7244,4.3111 0,1.7245 -1.7244,3.4489 -1.7245,3.4489 -4.3111,6.0355 -1.7245,2.5867 -3.4489,6.0356 h -8.6222 q -21.5555,-4.3111 -45.6976,-2.5867 -9.4844,0.8622 -18.1066,0.8622 -8.6222,0 -17.2444,-2.5866 -6.0355,-1.7245 -11.2088,-0.8622 -5.1733,0.8622 -10.3467,0 -6.0355,-1.7245 -12.9332,-0.8623 -6.0356,0 -12.0711,-0.8622 -6.0355,-0.8622 -11.2089,-0.8622 -5.1733,0 -10.3466,0 -4.3111,0 -6.0355,0.8622 -13.7955,3.4489 -27.591,1.7245 -13.7955,-1.7245 -25.8666,-1.7245 -5.1733,-3.4489 -9.4844,-6.0355 -3.4489,-3.4489 -4.3111,-9.4844 1.7244,-4.3111 0,-9.4844 -1.7244,-6.0356 0.8622,-11.2089 -1.7244,-6.0355 0,-11.2088 2.5867,-5.1733 1.7245,-11.2089 1.7244,-7.7599 0,-9.4844 -1.7245,-1.7244 -1.7245,-12.9333 0,-6.8977 0,-11.2088 0,-4.3111 6.0356,-6.8978 3.4488,0 13.7955,1.7245 10.3466,0.8622 20.6932,2.5866 10.3466,0.8622 13.7955,1.7245 6.0356,0 11.2089,0 5.1733,0 11.2088,0.8622 h 10.3466 q 6.8978,0.8622 23.28,0.8622 17.2443,0 25.0043,-0.8622 5.1733,0 7.76,-0.8622 19.831,0 38.7998,0 19.8311,-0.8623 38.7999,-1.7245 6.0355,0 14.6577,4.3111 1.7244,0.8622 2.5867,3.4489 1.7244,2.5867 2.5866,4.3111 6.0356,7.76 4.3111,18.9688 z"
         id="path6039" />
      <path
         d="m 3362.1529,-2803.9972 q -5.1733,11.2089 -13.7955,18.9688 -8.6222,6.8978 -14.6577,16.3822 -6.8978,1.7244 -13.7955,6.0355 -6.0355,4.3111 -11.2089,8.6222 -8.6222,5.1733 -15.5199,0 -3.4489,-1.7244 -6.0355,-3.4489 -1.7245,-2.5866 -5.1734,-4.311 -6.8977,-6.0356 -18.1066,-4.3111 -0.8622,0.8622 -2.5866,-0.8623 v -8.6222 q -0.8622,-0.8622 -2.5867,-2.5866 -0.8622,-1.7244 -2.5866,-1.7244 -17.2444,-6.8978 -32.7643,-0.8623 -5.1734,0.8623 -10.3467,2.5867 -5.1733,1.7244 -10.3466,3.4489 -3.4489,5.1733 -6.8978,10.3466 -2.5866,5.1733 -6.0355,9.4844 0.8622,6.8978 0.8622,13.7955 0.8623,6.8978 1.7245,13.7955 4.3111,5.1733 7.7599,11.2089 4.3111,5.1733 7.76,11.2088 7.76,6.0355 16.3822,12.0711 8.6222,5.1733 16.3821,12.071 5.1733,3.4489 10.3467,6.0356 6.0355,1.7244 10.3466,6.0355 4.3111,4.3111 7.76,7.76 4.3111,2.5866 7.7599,6.8977 2.5867,0.8622 5.1733,2.5867 2.5867,1.7244 5.1734,3.4489 14.6577,9.4844 22.4177,25.8665 4.3111,6.8978 8.6221,14.6578 5.1734,7.7599 9.4845,14.6577 6.0355,5.1733 7.7599,12.071 2.5867,6.8978 5.1733,13.7955 0.8623,0.8623 0.8623,3.4489 1.7244,10.3466 5.1733,19.8311 4.3111,9.4844 8.6222,18.9688 2.5866,11.2088 2.5866,22.4177 0.8622,10.3466 -0.8622,20.6932 0,8.6222 -2.5867,17.2444 -1.7244,7.76 -5.1733,14.6577 -0.8622,0.8622 -0.8622,1.7245 0,0.8622 -1.7244,2.5866 -7.76,7.76 -12.9333,17.2444 -4.3111,9.4844 -10.3466,18.9688 -0.8623,0.8622 -0.8623,2.5867 0,0.8622 -1.7244,1.7244 -8.6222,6.0355 -14.6577,12.9333 -5.1733,6.8978 -12.0711,13.7955 -3.4489,3.4489 -8.6222,6.0355 -5.1733,2.5867 -9.4844,6.0356 l -18.1066,8.6222 q -8.6222,0.8622 -18.1066,2.5866 -8.6222,1.7245 -18.1066,6.0355 -6.0355,3.4489 -13.7955,5.1734 -6.8977,1.7244 -13.7955,3.4488 -3.4489,0.8623 -6.8977,1.7245 -3.4489,0.8622 -6.8978,1.7244 -11.2088,-8.6222 -25.0043,-8.6222 -9.4845,0 -16.3822,-3.4489 -10.3466,-4.311 -19.831,-9.4844 -9.4845,-4.3111 -17.2444,-12.071 -5.1733,-4.3111 -10.3467,-7.76 -5.1733,-3.4489 -9.4844,-6.8977 -3.4488,-3.4489 -8.6221,-4.3111 -4.3111,-1.7245 -8.6222,-3.4489 -6.0356,-4.3111 -6.8978,-9.4844 0.8622,-6.8978 5.1733,-12.9333 5.1733,-6.0355 8.6222,-12.9333 0,-5.1733 2.5867,-12.9333 7.7599,-10.3466 16.3821,-20.6932 8.6222,-11.2089 17.2444,-22.4177 3.4489,-2.5867 7.76,-5.1733 4.3111,-3.4489 9.4844,-6.8978 17.2444,4.3111 32.7643,9.4844 15.52,5.1733 31.9021,9.4844 3.4489,-0.8622 5.1733,-1.7244 1.7245,-1.7245 2.5867,-2.5867 2.5866,-0.8622 4.3111,-1.7244 1.7244,-0.8622 2.5866,-1.7245 h 15.52 q 0.8622,-1.7244 1.7244,-2.5866 1.7245,-1.7244 2.5867,-3.4489 3.4489,-8.6222 6.8977,-16.3821 3.4489,-7.76 4.3111,-17.2444 -1.7244,-6.8978 -4.3111,-14.6577 -1.7244,-7.76 -7.7599,-15.52 -3.4489,-2.5866 -7.76,-6.0355 -4.3111,-3.4489 -8.6222,-6.8978 -14.6577,-1.7244 -30.1777,-7.7599 -14.6577,-6.0356 -29.3154,-6.0356 -6.0355,-1.7244 -9.4844,-5.1733 -3.4489,-4.3111 -7.76,-7.76 -6.0355,-1.7244 -12.9333,-2.5866 -6.8977,-0.8622 -11.2088,-6.8978 -13.7955,-7.7599 -23.2799,-11.2088 -4.3111,-5.1733 -8.6222,-10.3466 -3.4489,-5.1734 -7.76,-9.4845 -3.4489,-4.3111 -6.8978,-10.3466 -2.5866,-6.8977 -6.8977,-12.9333 -3.4489,-4.3111 -6.0355,-9.4844 -2.5867,-6.0355 -5.1734,-12.071 -2.5866,-12.0711 -5.1733,-25.8666 1.7245,-9.4844 2.5867,-18.9688 1.7244,-10.3467 2.5866,-20.6933 l -3.4488,-8.6222 q 3.4488,-1.7244 5.1733,-5.1733 1.7244,-3.4489 3.4489,-6.8977 1.7244,-5.1734 4.3111,-8.6222 2.5866,-3.4489 1.7244,-9.4844 0,-16.3822 8.6222,-30.1777 1.7244,-3.4489 2.5866,-6.0355 1.7245,-2.5867 2.5867,-5.1734 4.3111,-2.5866 6.8978,-5.1733 3.4488,-3.4488 4.311,-4.3111 4.3111,-4.3111 3.4489,-7.7599 -0.8622,-4.3111 0,-7.76 3.4489,-5.1733 7.76,-10.3466 4.3111,-5.1733 9.4844,-11.2089 6.0355,-4.3111 12.9333,-6.8977 6.8977,-3.4489 12.9333,-9.4844 1.7244,-2.5867 4.3111,-3.4489 2.5866,-1.7245 6.0355,-2.5867 4.3111,-2.5866 9.4844,-4.3111 5.1733,-1.7244 10.3466,-4.3111 8.6222,-1.7244 17.2444,-2.5866 9.4844,-0.8622 18.1066,-1.7245 0.8622,0 1.7245,0 1.7244,-0.8622 3.4488,0 9.4844,3.4489 18.9688,0 10.3467,-3.4488 20.6933,-2.5866 9.4844,0 18.1066,2.5866 9.4844,2.5867 18.1066,4.3111 9.4844,6.8978 18.9688,12.9333 9.4844,5.1733 20.6933,8.6222 3.4489,3.4489 6.0355,7.76 3.4489,3.4489 6.8978,7.76 3.4488,3.4488 6.8977,6.0355 3.4489,2.5866 6.0355,6.0355 6.8978,12.9333 12.9333,25.8666 6.8978,12.0711 12.9333,24.1421 z"
         id="path6041" />
      <path
         d="m 3927.7684,-2818.6549 q -5.1733,16.3822 -4.3111,31.0399 0.8622,4.3111 0,9.4844 -0.8622,4.3111 -1.7245,8.6222 -0.8622,3.4489 -0.8622,8.6222 0.8622,5.1733 -0.8622,8.6222 -1.7244,6.0355 0,12.071 1.7244,5.1733 2.5867,10.3467 -1.7245,6.0355 -3.4489,13.7955 -1.7245,6.8977 -0.8622,15.5199 0,10.3466 -2.5867,20.6933 -0.8622,6.0355 0,12.071 3.4489,11.2089 2.5867,21.5555 -0.8623,10.3466 -4.3111,20.6933 -3.4489,6.0355 -3.4489,12.071 0.8622,9.4844 -2.5867,18.1066 -3.4488,8.6222 -7.7599,17.2444 -0.8623,2.5867 -3.4489,4.3111 -2.5867,1.7244 -4.3111,4.3111 -6.0355,19.831 -9.4844,28.4532 -3.4489,7.76 -12.9333,25.0044 -0.8622,1.7244 -3.4489,4.3111 -2.5866,2.5866 -4.3111,4.3111 -0.8622,1.7244 -2.5866,2.5866 -0.8623,0.8622 -0.8623,1.7244 -3.4488,11.2089 -10.3466,18.9689 -6.8977,7.7599 -13.7955,14.6577 -3.4489,3.4489 -6.0355,7.76 -1.7245,3.4488 -5.1733,7.7599 -8.6222,6.0356 -16.3822,12.0711 -7.76,6.0355 -16.3822,12.0711 -5.1733,3.4488 -10.3466,6.0355 -6.0355,1.7244 -12.071,5.1733 -6.0356,2.5867 -12.0711,4.3111 -6.0355,3.4489 -12.0711,6.0355 -6.0355,1.7245 -12.071,5.1734 h -19.8311 q -4.3111,1.7244 -9.4844,4.311 -4.3111,1.7245 -9.4844,0.8623 -5.1733,-0.8623 -10.3466,2.5866 -4.3111,2.5867 -9.4844,3.4489 -2.5867,-0.8622 -6.0356,-1.7244 -3.4488,-0.8623 -6.8977,-0.8623 -3.4489,2.5867 -6.8978,5.1734 -2.5866,1.7244 -6.0355,4.3111 -0.8622,0 -2.5867,0.8622 -0.8622,0 -2.5866,0 -3.4489,0 -7.76,0.8622 -3.4489,0 -6.8977,-0.8622 -6.0356,-3.4489 -11.2089,-2.5867 -5.1733,0.8622 -11.2088,-1.7244 -6.8978,-1.7245 -6.8978,-7.76 0,-7.76 -8.6222,-9.4844 -2.5866,0 -5.1733,0.8622 -1.7244,0 -4.3111,0 -3.4489,-0.8622 -6.0355,-3.4489 -2.5867,-2.5866 -6.0356,-4.3111 -4.311,-3.4488 -9.4844,-6.0355 -5.1733,-3.4489 -11.2088,-4.3111 -5.1733,-0.8622 -10.3466,-2.5866 -4.3111,-2.5867 -8.6222,-3.4489 -9.4844,-3.4489 -13.7955,-15.52 -2.5867,-11.2088 -9.4844,-18.1066 -2.5867,-3.4488 -4.3111,-6.0355 -1.7245,-3.4489 -3.4489,-6.8977 -1.7244,-1.7245 -3.4489,-5.1734 -1.7244,-3.4488 -3.4489,-4.3111 -8.6222,-5.1733 -13.7955,-12.9332 -4.3111,-7.76 -7.7599,-16.3822 -0.8623,-0.8622 -1.7245,-2.5867 0,-1.7244 -0.8622,-2.5866 -6.0355,-3.4489 -6.0355,-10.3466 0,-6.8978 -1.7245,-12.9333 -1.7244,-1.7245 -4.3111,-4.3111 -2.5866,-2.5867 -5.1733,-6.0356 -1.7244,-6.8977 -4.3111,-13.7955 -2.5866,-6.8977 -4.3111,-14.6577 0,-13.7955 -0.8622,-19.831 0,-6.8978 -0.8622,-12.9333 -0.8622,-6.8978 -4.3111,-18.9688 0,-6.8978 2.5867,-13.7955 3.4488,-6.8978 1.7244,-16.3822 -2.5867,-4.3111 -5.1733,-10.3466 -1.7245,-6.0355 -5.1733,-12.0711 0,-1.7244 -0.8622,-4.3111 0,-2.5866 0,-4.3111 0.8622,-6.8977 0.8622,-12.9333 0,-6.0355 0,-12.071 0,-6.8978 1.7244,-13.7955 1.7244,-7.76 2.5867,-13.7955 1.7244,-9.4844 2.5866,-18.1066 1.7245,-9.4844 3.4489,-18.9688 1.7244,-13.7955 6.0355,-27.5911 4.3111,-13.7955 9.4844,-27.591 9.4844,-6.0355 17.2444,-11.2088 8.6222,-5.1733 17.2444,-11.2089 h 37.0754 l 9.4844,3.4489 q 4.3111,0.8622 8.6222,0 4.3111,-1.7244 8.6222,-2.5866 4.3111,2.5866 9.4844,6.0355 6.0355,2.5867 12.0711,6.8978 0,1.7244 0.8622,4.311 1.7244,2.5867 1.7244,4.3111 0,6.0356 -0.8622,12.9333 0,6.8978 -2.5866,13.7955 -1.7245,7.76 0,16.3822 0.8622,2.5866 0.8622,8.6222 -0.8622,6.8977 -2.5867,14.6577 -1.7244,7.76 -4.3111,14.6577 -0.8622,3.4489 -0.8622,6.8978 0,2.5866 0.8622,5.1733 2.5867,6.8977 0,12.9333 -1.7244,6.0355 0,12.071 5.1733,10.3467 3.4489,24.1422 0,6.8977 2.5867,11.2088 4.3111,7.76 4.3111,15.52 0.8622,6.8977 0,14.6577 -1.7245,6.8977 -0.8623,13.7955 1.7245,6.8977 4.3111,12.9333 3.4489,5.1733 5.1733,10.3466 1.7245,4.3111 5.1734,10.3466 4.3111,4.3111 9.4844,9.4844 5.1733,5.1734 8.6222,12.0711 0.8622,4.3111 6.8977,10.3466 0,0 2.5867,1.7245 4.3111,0.8622 8.6222,0.8622 5.1733,0 9.4844,0 4.3111,3.4489 7.7599,6.0355 3.4489,2.5867 6.8978,5.1733 5.1733,-2.5866 9.4844,-5.1733 4.3111,-2.5866 8.6222,-6.0355 l 12.0711,-2.5867 q 0.8622,0 1.7244,0 1.7244,-0.8622 2.5866,0 24.1422,7.76 37.0755,-16.3821 1.7244,-5.1733 5.1733,-10.3467 3.4489,-5.1733 5.1733,-11.2088 1.7244,-4.3111 4.3111,-7.76 2.5866,-3.4488 5.1733,-6.8977 v -12.0711 q 2.5867,-1.7244 5.1733,-4.3111 3.4489,-3.4489 6.8978,-5.1733 1.7244,-4.3111 2.5866,-8.6222 1.7245,-4.3111 4.3111,-8.6222 1.7245,-3.4489 2.5867,-6.0355 1.7244,-3.4489 4.3111,-6.8978 -0.8622,-4.3111 -1.7245,-6.8977 -0.8622,-2.5867 -1.7244,-6.0355 6.0355,-13.7956 6.8977,-26.7288 0.8623,-4.3111 0,-8.6222 0,-5.1733 -0.8622,-10.3467 1.7245,-4.311 2.5867,-7.7599 1.7244,-4.3111 2.5866,-7.76 0,-6.8977 -1.7244,-12.9333 -0.8622,-6.8977 0.8622,-12.9333 1.7245,-6.0355 0.8622,-8.6222 -3.4488,-13.7955 -1.7244,-26.7287 1.7244,-12.9333 5.1733,-24.1422 -0.8622,-4.3111 -1.7244,-8.6222 0,-4.3111 0,-8.6222 1.7244,-1.7244 3.4489,-2.5866 1.7244,-0.8622 2.5866,-3.4489 4.3111,1.7244 6.8978,3.4489 3.4488,0.8622 6.8977,1.7244 12.0711,4.3111 24.1421,6.8978 12.0711,2.5866 25.0044,-0.8622 14.6577,0.8622 29.3154,1.7244 15.52,0 30.1777,4.3111 12.0711,3.4489 14.6577,12.9333 z"
         id="path6043" />
      <path
         d="m 4437.3388,-2741.0552 q 0.8622,6.8978 -1.7244,13.7955 -1.7245,6.0355 -4.3111,12.0711 -5.1733,0 -8.6222,0.8622 -3.4489,1.7244 -2.5867,6.0355 1.7245,4.3111 -0.8622,7.76 -1.7244,3.4489 -3.4489,7.76 -1.7244,4.3111 -3.4488,6.8977 -0.8623,6.0356 2.5866,9.4844 4.3111,3.4489 4.3111,8.6222 0.8622,3.4489 -0.8622,6.8978 -0.8622,2.5866 -2.5867,6.0355 -1.7244,3.4489 -4.3111,6.0355 -1.7244,2.5867 -3.4488,6.0356 -2.5867,4.3111 -6.0356,9.4844 -2.5866,5.1733 -5.1733,9.4844 -3.4489,3.4489 -8.6222,6.8977 -4.3111,3.4489 -8.6222,6.8978 -1.7244,2.5867 -3.4488,6.0355 -1.7245,2.5867 -3.4489,6.8978 -13.7955,11.2088 -27.591,22.4177 -13.7955,11.2088 -28.4533,20.6932 -10.3466,3.4489 -21.5554,6.0356 -11.2089,1.7244 -22.4177,3.4488 -8.6222,0.8623 -17.2444,2.5867 -8.6222,1.7244 -18.1066,4.3111 -5.1733,0.8622 -10.3466,1.7244 -5.1733,0 -12.0711,0 -11.2088,0.8622 -22.4177,1.7245 -10.3466,0 -19.831,0 -10.3467,4.3111 -11.2089,10.3466 -0.8622,5.1733 -2.5866,10.3466 -1.7245,5.1733 -3.4489,10.3466 0,11.2089 -1.7244,23.28 -0.8623,12.071 0,23.2799 0,4.3111 -0.8623,6.0355 0,5.1733 -0.8622,11.2089 0,5.1733 0,10.3466 0,5.1733 0,10.3466 0.8622,4.3111 1.7245,8.6222 2.5866,16.3822 -4.3111,32.7643 0,4.3111 -1.7245,7.76 -2.5866,6.8977 -9.4844,5.1733 -12.9333,-4.3111 -25.8666,-5.1733 -12.071,0 -25.8665,1.7244 h -11.2089 q -12.071,6.0356 -25.0043,7.76 -12.9333,1.7244 -26.7288,2.5867 -7.76,0 -9.4844,-5.1734 0,0 -0.8622,-0.8622 0,0 0,-0.8622 -1.7245,-21.5555 -4.3111,-43.9732 -2.5867,-22.4177 -1.7245,-43.9731 0,-4.3111 -0.8622,-8.6222 0,-4.3111 -0.8622,-7.76 -1.7244,-9.4844 -2.5867,-18.9688 -0.8622,-10.3466 -1.7244,-19.831 0,-3.4489 0,-6.8978 0,-3.4489 -1.7244,-6.8977 -3.4489,-6.8978 -3.4489,-14.6578 0.8622,-7.7599 0.8622,-13.7955 2.5867,-6.0355 3.4489,-9.4844 0.8622,-4.3111 1.7244,-9.4844 -2.5866,-3.4489 -2.5866,-6.0355 0.8622,-3.4489 -0.8623,-6.0356 0,-1.7244 -0.8622,-2.5866 -0.8622,-1.7245 -0.8622,-2.5867 -0.8622,-21.5554 -1.7244,-49.1465 0,-27.591 0,-51.7331 0.8622,-24.1421 1.7244,-34.4888 1.7244,-3.4488 3.4489,-6.0355 2.5866,-2.5866 3.4489,-5.1733 0,-2.5867 -1.7245,-3.4489 -1.7244,-1.7244 -3.4489,-2.5866 1.7245,-7.76 3.4489,-15.52 2.5867,-7.7599 4.3111,-15.5199 -0.8622,-4.3111 -1.7244,-7.76 -0.8622,-3.4489 -2.5867,-6.8977 2.5867,-6.0356 5.1733,-13.7955 -0.8622,-6.8978 -1.7244,-15.52 0,-8.6222 -1.7244,-18.1066 1.7244,-2.5866 2.5866,-6.8977 0.8622,-5.1734 2.5867,-9.4844 1.7244,-4.3111 0,-8.6222 -0.8623,-4.3111 1.7244,-7.76 5.1733,-1.7244 8.6222,-0.8622 1.7244,0.8622 4.3111,2.5866 2.5866,0.8622 4.3111,1.7245 h 6.0355 q 10.3466,-3.4489 20.6933,-6.0356 11.2088,-3.4488 20.6932,-7.7599 6.0356,-3.4489 13.7955,-1.7245 5.1733,0.8622 9.4844,1.7245 5.1734,0 9.4844,-1.7245 6.0356,-0.8622 11.2089,-0.8622 6.0355,-0.8622 12.0711,-0.8622 16.3821,0 32.7643,-2.5867 16.3821,-2.5866 32.7643,-6.0355 6.8978,-2.5867 14.6577,-1.7244 7.76,0.8622 14.6578,0 6.0355,1.7244 12.071,4.3111 6.0356,1.7244 12.0711,3.4488 6.0355,1.7245 12.071,3.4489 6.0356,0.8622 13.7956,2.5867 12.9332,-3.4489 27.591,-2.5867 14.6577,0 28.4532,0.8622 7.76,0.8622 14.6577,3.4489 7.76,2.5867 13.7955,6.8978 8.6222,3.4488 18.9688,11.2088 4.3111,3.4489 7.76,7.76 4.3111,3.4488 7.76,7.7599 1.7244,0.8623 2.5866,3.4489 0.8623,1.7245 1.7245,3.4489 1.7244,6.0355 6.0355,9.4844 4.3111,3.4489 7.76,7.76 15.5199,23.2799 15.5199,53.4576 1.7245,5.1733 4.3111,11.2088 2.5867,5.1733 4.3111,9.4844 z m -138.8173,12.0711 q -0.8622,-5.1733 -3.4488,-10.3467 -1.7245,-5.1733 -3.4489,-10.3466 -0.8622,-2.5866 -2.5867,-4.3111 -0.8622,-1.7244 -1.7244,-2.5866 -1.7244,-4.3111 -6.8978,-2.5867 -1.7244,1.7244 -3.4488,2.5867 -1.7245,0.8622 -3.4489,2.5866 -4.3111,0.8622 -8.6222,1.7245 -3.4489,0 -7.76,0.8622 h -10.3466 q -2.5866,-1.7245 -6.0355,-3.4489 -2.5867,-2.5867 -6.8978,-5.1733 -6.0355,-0.8622 -13.7955,-0.8622 -6.8977,-0.8622 -13.7955,0 -16.3821,3.4488 -25.8666,12.9333 -5.1733,-1.7245 -8.6221,-1.7245 -2.5867,-1.7244 -5.1734,-0.8622 -2.5866,0.8622 -5.1733,0.8622 -5.1733,2.5867 -9.4844,6.0356 -4.3111,3.4488 -6.8977,9.4844 -0.8623,3.4488 -2.5867,7.7599 -0.8622,3.4489 -0.8622,7.76 -0.8622,8.6222 -1.7244,18.1066 0,8.6222 -0.8623,18.1066 0,5.1733 -0.8622,11.2088 0,5.1734 0.8622,10.3467 0,0.8622 0.8623,3.4488 0.8622,2.5867 1.7244,4.3111 12.0711,-1.7244 22.4177,-1.7244 10.3466,-0.8622 19.831,0.8622 9.4844,2.5867 18.9688,3.4489 10.3467,0.8622 18.9689,3.4489 4.3111,0.8622 10.3466,-0.8622 5.1733,-4.3111 9.4844,-8.6222 5.1733,-4.3111 10.3466,-8.6222 4.3111,-0.8622 7.76,-0.8622 4.3111,-0.8623 7.76,-1.7245 5.1733,-4.3111 10.3466,-8.6222 5.1733,-5.1733 9.4844,-9.4844 1.7244,-6.0355 2.5867,-11.2088 1.7244,-5.1733 2.5866,-11.2089 1.7245,-5.1733 3.4489,-9.4844 2.5866,-5.1733 2.5866,-11.2088 z"
         id="path6045" />
      <path
         d="m 4947.7717,-2741.0552 q 0.8622,6.8978 -1.7245,13.7955 -1.7244,6.0355 -4.3111,12.0711 -5.1733,0 -8.6222,0.8622 -3.4488,1.7244 -2.5866,6.0355 1.7244,4.3111 -0.8622,7.76 -1.7245,3.4489 -3.4489,7.76 -1.7244,4.3111 -3.4489,6.8977 -0.8622,6.0356 2.5867,9.4844 4.3111,3.4489 4.3111,8.6222 0.8622,3.4489 -0.8623,6.8978 -0.8622,2.5866 -2.5866,6.0355 -1.7244,3.4489 -4.3111,6.0355 -1.7244,2.5867 -3.4489,6.0356 -2.5866,4.3111 -6.0355,9.4844 -2.5867,5.1733 -5.1733,9.4844 -3.4489,3.4489 -8.6222,6.8977 -4.3111,3.4489 -8.6222,6.8978 -1.7244,2.5867 -3.4489,6.0355 -1.7244,2.5867 -3.4489,6.8978 -13.7955,11.2088 -27.591,22.4177 -13.7955,11.2088 -28.4532,20.6932 -10.3466,3.4489 -21.5555,6.0356 -11.2088,1.7244 -22.4177,3.4488 -8.6222,0.8623 -17.2443,2.5867 -8.6222,1.7244 -18.1066,4.3111 -5.1734,0.8622 -10.3467,1.7244 -5.1733,0 -12.071,0 -11.2089,0.8622 -22.4177,1.7245 -10.3467,0 -19.8311,0 -10.3466,4.3111 -11.2088,10.3466 -0.8622,5.1733 -2.5867,10.3466 -1.7244,5.1733 -3.4488,10.3466 0,11.2089 -1.7245,23.28 -0.8622,12.071 0,23.2799 0,4.3111 -0.8622,6.0355 0,5.1733 -0.8622,11.2089 0,5.1733 0,10.3466 0,5.1733 0,10.3466 0.8622,4.3111 1.7244,8.6222 2.5867,16.3822 -4.3111,32.7643 0,4.3111 -1.7244,7.76 -2.5867,6.8977 -9.4844,5.1733 -12.9333,-4.3111 -25.8666,-5.1733 -12.0711,0 -25.8666,1.7244 h -11.2088 q -12.0711,6.0356 -25.0044,7.76 -12.9332,1.7244 -26.7288,2.5867 -7.7599,0 -9.4844,-5.1734 0,0 -0.8622,-0.8622 0,0 0,-0.8622 -1.7244,-21.5555 -4.3111,-43.9732 -2.5866,-22.4177 -1.7244,-43.9731 0,-4.3111 -0.8622,-8.6222 0,-4.3111 -0.8622,-7.76 -1.7245,-9.4844 -2.5867,-18.9688 -0.8622,-10.3466 -1.7244,-19.831 0,-3.4489 0,-6.8978 0,-3.4489 -1.7245,-6.8977 -3.4489,-6.8978 -3.4489,-14.6578 0.8623,-7.7599 0.8623,-13.7955 2.5866,-6.0355 3.4488,-9.4844 0.8623,-4.3111 1.7245,-9.4844 -2.5867,-3.4489 -2.5867,-6.0355 0.8622,-3.4489 -0.8622,-6.0356 0,-1.7244 -0.8622,-2.5866 -0.8622,-1.7245 -0.8622,-2.5867 -0.8623,-21.5554 -1.7245,-49.1465 0,-27.591 0,-51.7331 0.8622,-24.1421 1.7245,-34.4888 1.7244,-3.4488 3.4488,-6.0355 2.5867,-2.5866 3.4489,-5.1733 0,-2.5867 -1.7244,-3.4489 -1.7245,-1.7244 -3.4489,-2.5866 1.7244,-7.76 3.4489,-15.52 2.5866,-7.7599 4.3111,-15.5199 -0.8622,-4.3111 -1.7245,-7.76 -0.8622,-3.4489 -2.5866,-6.8977 2.5866,-6.0356 5.1733,-13.7955 -0.8622,-6.8978 -1.7244,-15.52 0,-8.6222 -1.7245,-18.1066 1.7245,-2.5866 2.5867,-6.8977 0.8622,-5.1734 2.5866,-9.4844 1.7245,-4.3111 0,-8.6222 -0.8622,-4.3111 1.7245,-7.76 5.1733,-1.7244 8.6222,-0.8622 1.7244,0.8622 4.311,2.5866 2.5867,0.8622 4.3111,1.7245 h 6.0356 q 10.3466,-3.4489 20.6932,-6.0356 11.2089,-3.4488 20.6933,-7.7599 6.0355,-3.4489 13.7955,-1.7245 5.1733,0.8622 9.4844,1.7245 5.1733,0 9.4844,-1.7245 6.0355,-0.8622 11.2089,-0.8622 6.0355,-0.8622 12.071,-0.8622 16.3822,0 32.7643,-2.5867 16.3822,-2.5866 32.7644,-6.0355 6.8977,-2.5867 14.6577,-1.7244 7.76,0.8622 14.6577,0 6.0355,1.7244 12.0711,4.3111 6.0355,1.7244 12.071,3.4488 6.0356,1.7245 12.0711,3.4489 6.0355,0.8622 13.7955,2.5867 12.9333,-3.4489 27.591,-2.5867 14.6577,0 28.4532,0.8622 7.76,0.8622 14.6578,3.4489 7.7599,2.5867 13.7955,6.8978 8.6222,3.4488 18.9688,11.2088 4.3111,3.4489 7.76,7.76 4.3111,3.4488 7.7599,7.7599 1.7245,0.8623 2.5867,3.4489 0.8622,1.7245 1.7244,3.4489 1.7245,6.0355 6.0356,9.4844 4.3111,3.4489 7.7599,7.76 15.52,23.2799 15.52,53.4576 1.7244,5.1733 4.3111,11.2088 2.5866,5.1733 4.3111,9.4844 z m -138.8173,12.0711 q -0.8622,-5.1733 -3.4489,-10.3467 -1.7244,-5.1733 -3.4488,-10.3466 -0.8623,-2.5866 -2.5867,-4.3111 -0.8622,-1.7244 -1.7244,-2.5866 -1.7245,-4.3111 -6.8978,-2.5867 -1.7244,1.7244 -3.4489,2.5867 -1.7244,0.8622 -3.4488,2.5866 -4.3111,0.8622 -8.6222,1.7245 -3.4489,0 -7.76,0.8622 h -10.3466 q -2.5867,-1.7245 -6.0356,-3.4489 -2.5866,-2.5867 -6.8977,-5.1733 -6.0355,-0.8622 -13.7955,-0.8622 -6.8978,-0.8622 -13.7955,0 -16.3822,3.4488 -25.8666,12.9333 -5.1733,-1.7245 -8.6222,-1.7245 -2.5866,-1.7244 -5.1733,-0.8622 -2.5867,0.8622 -5.1733,0.8622 -5.1733,2.5867 -9.4844,6.0356 -4.3111,3.4488 -6.8978,9.4844 -0.8622,3.4488 -2.5866,7.7599 -0.8622,3.4489 -0.8622,7.76 -0.8623,8.6222 -1.7245,18.1066 0,8.6222 -0.8622,18.1066 0,5.1733 -0.8622,11.2088 0,5.1734 0.8622,10.3467 0,0.8622 0.8622,3.4488 0.8622,2.5867 1.7245,4.3111 12.071,-1.7244 22.4176,-1.7244 10.3467,-0.8622 19.8311,0.8622 9.4844,2.5867 18.9688,3.4489 10.3466,0.8622 18.9688,3.4489 4.3111,0.8622 10.3466,-0.8622 5.1734,-4.3111 9.4845,-8.6222 5.1733,-4.3111 10.3466,-8.6222 4.3111,-0.8622 7.76,-0.8622 4.311,-0.8623 7.7599,-1.7245 5.1733,-4.3111 10.3467,-8.6222 5.1733,-5.1733 9.4844,-9.4844 1.7244,-6.0355 2.5866,-11.2088 1.7245,-5.1733 2.5867,-11.2089 1.7244,-5.1733 3.4489,-9.4844 2.5866,-5.1733 2.5866,-11.2088 z"
         id="path6047" />
      <path
         d="m 5397.8492,-2424.6208 q -0.8622,-0.8622 -1.7244,-0.8622 0,0 0,0 l 0.8622,0.8622 q -3.4489,1.7244 -5.1733,7.7599 -0.8623,6.0356 -4.3111,8.6222 -0.8622,2.5867 -6.0356,7.76 -5.1733,5.1733 -7.7599,4.3111 -12.0711,-2.5867 -28.4533,0 -2.5866,2.5867 -5.1733,5.1733 -2.5866,2.5867 -6.8977,6.0356 -0.8622,0 -1.7245,0.8622 -0.8622,0 -2.5866,0 -2.5867,0.8622 -7.76,0.8622 -27.591,-0.8622 -54.3198,10.3466 -6.0355,1.7245 -12.9333,2.5867 -6.8977,0 -13.7955,-2.5867 -5.1733,-2.5866 -10.3466,-2.5866 -4.3111,-0.8623 -9.4844,0 -11.2089,0 -21.5555,-3.4489 -4.3111,0.8622 -9.4844,1.7244 -4.3111,0.8622 -8.6222,2.5867 -4.3111,1.7244 -8.6222,4.3111 -4.3111,3.4489 -9.4844,2.5866 -0.8622,-1.7244 -2.5866,-3.4488 -1.7245,-2.5867 -3.4489,-6.0356 -1.7245,-0.8622 -4.3111,-1.7244 -2.5867,-1.7245 -4.3111,-2.5867 -11.2089,-1.7244 -20.6933,-7.7599 -12.9333,-8.6222 -25.0043,-12.9333 -6.0355,-1.7245 -10.3466,-6.0356 -3.4489,-5.1733 -7.76,-8.6222 -3.4489,-8.6221 -6.0355,-16.3821 -2.5867,-7.76 -3.4489,-16.3822 -2.5867,-1.7244 -4.3111,-3.4488 -1.7245,-2.5867 -3.4489,-4.3111 -5.1733,-3.4489 -5.1733,-6.0356 -0.8622,-7.7599 -5.1733,-12.071 -4.3111,-4.3111 -7.76,-12.0711 0,-1.7244 -0.8622,-5.1733 0,-3.4489 -0.8622,-6.8978 0,-1.7244 0,-4.3111 0,-3.4488 -0.8623,-5.1733 -3.4488,-6.8977 -6.8977,-12.9333 -3.4489,-6.8977 -6.0355,-12.9333 0,-4.311 1.7244,-12.9332 4.3111,-18.1066 -0.8622,-35.351 -2.5867,-6.0355 -3.4489,-12.0711 -0.8622,-6.0355 -2.5866,-12.071 0.8622,-1.7245 1.7244,-4.3111 1.7244,-3.4489 3.4489,-5.1734 l -6.0356,-18.1066 q -1.7244,-4.3111 -5.1733,-7.7599 -2.5866,-4.3111 -5.1733,-7.76 -0.8622,-6.8978 2.5867,-12.9333 4.3111,-6.0355 5.1733,-12.071 0,-2.5867 -0.8622,-5.1734 0,-2.5866 0,-5.1733 6.8977,-9.4844 8.6221,-19.831 2.5867,-10.3466 3.4489,-21.5555 6.0356,-3.4489 10.3466,-7.76 4.3111,-4.3111 6.0356,-11.2088 0.8622,-2.5867 0.8622,-6.0355 0.8622,-3.4489 1.7244,-6.8978 4.3111,-6.8977 8.6222,-13.7955 5.1733,-7.76 9.4844,-13.7955 1.7245,-4.3111 2.5867,-9.4844 1.7244,-5.1733 5.1733,-8.6222 4.3111,-2.5867 6.0355,-6.8978 2.5867,-4.311 4.3111,-8.6221 6.0356,-0.8623 10.3467,-2.5867 4.3111,-1.7244 7.7599,-2.5867 4.3111,-2.5866 4.3111,-5.1733 2.5867,-12.071 10.3467,-17.2443 8.6221,-6.0356 18.9688,-8.6222 3.4489,-0.8623 6.0355,-0.8623 2.5867,-0.8622 6.8978,-1.7244 1.7244,-1.7244 4.3111,-4.3111 2.5866,-3.4489 5.1733,-6.8977 5.1733,-1.7245 9.4844,-3.4489 5.1733,-1.7245 8.6222,-3.4489 h 6.0355 q 6.8978,2.5867 13.7955,5.1733 7.76,1.7245 16.3822,4.3111 6.8977,-0.8622 13.7955,-2.5866 7.7599,-2.5867 14.6577,-0.8623 0.8622,0 1.7244,0.8623 0.8623,0 1.7245,-0.8623 6.0355,0 12.071,-1.7244 6.0356,-1.7244 12.0711,-0.8622 5.1733,0 10.3466,-0.8622 6.0356,-0.8623 11.2089,-3.4489 4.3111,-0.8622 7.7599,-0.8622 4.3111,-0.8623 8.6222,0.8622 2.5867,2.5866 5.1734,5.1733 2.5866,1.7244 6.0355,5.1733 6.8977,0.8622 14.6577,3.4489 8.6222,1.7244 17.2444,4.3111 4.3111,0.8622 7.76,4.3111 4.3111,3.4489 10.3466,5.1733 5.1733,1.7244 10.3466,2.5867 6.0355,0 12.0711,0 13.7955,13.7955 32.7643,18.9688 1.7244,0.8622 3.4489,1.7244 1.7244,0.8622 3.4489,1.7244 6.8977,6.0356 12.9332,12.9333 6.8978,6.0356 12.9333,12.0711 6.0356,6.8977 6.8978,14.6577 6.8977,6.0356 7.7599,9.4844 1.7245,2.5867 1.7245,16.3822 5.1733,2.5866 9.4844,6.0355 4.3111,2.5867 5.1733,8.6222 1.7244,3.4489 3.4489,6.8978 1.7244,2.5866 2.5866,6.0355 2.5867,3.4489 5.1734,6.0355 3.4488,1.7245 6.8977,5.1733 2.5867,6.0356 4.3111,12.0711 1.7244,5.1733 0,12.0711 -1.7244,6.0355 -0.8622,12.9333 0.8622,6.8977 0,14.6577 -0.8622,6.8977 0,14.6577 0.8622,7.76 1.7244,14.6577 0.8622,3.4489 0.8622,7.76 0,3.4489 0.8623,6.0355 3.4488,6.0356 3.4488,12.0711 0.8623,6.0355 0,12.0711 0,3.4488 0,6.8977 0.8623,2.5867 0.8623,6.8978 -3.4489,11.2088 -6.0356,23.2799 -2.5866,11.2088 -7.76,21.5555 -5.1733,9.4844 -10.3466,18.9688 -5.1733,9.4844 -12.071,18.1066 v 14.6577 q -4.3111,2.5867 -8.6222,6.0355 -3.4489,2.5867 -6.0356,4.3111 -6.0355,10.3467 -7.7599,18.9688 -0.8623,7.76 -3.4489,14.6578 -3.4489,3.4488 -6.8978,6.8977 -3.4488,3.4489 -7.7599,6.8978 -4.3111,3.4488 -10.3467,6.0355 -5.1733,1.7244 -12.071,-0.8622 -7.76,-1.7245 -12.9333,0.8622 -3.4489,0.8622 -6.8978,1.7244 -3.4488,0.8623 -6.0355,1.7245 z m -13.7955,-194.8615 q -1.7244,-4.3111 -2.5867,-7.76 0,-4.3111 -0.8622,-8.6222 0,-6.8977 -0.8622,-11.2088 -1.7244,-6.8978 -5.1733,-14.6577 -2.5867,-8.6222 -6.0355,-16.3822 -0.8623,-3.4489 -3.4489,-6.8978 -1.7245,-4.3111 -3.4489,-7.7599 -6.8978,-13.7955 -21.5555,-16.3822 -2.5866,-0.8622 -6.0355,-1.7244 -3.4489,-1.7245 -6.0355,-3.4489 -5.1734,-3.4489 -10.3467,-5.1733 -5.1733,-1.7245 -10.3466,-2.5867 -6.8977,-1.7244 -14.6577,-3.4489 -7.76,-2.5866 -14.6577,-3.4488 -8.6222,-4.3111 -16.3822,0.8622 -23.2799,9.4844 -42.2487,25.0043 -18.9689,14.6578 -32.7644,40.5243 -2.5866,3.4489 -5.1733,7.76 -1.7244,4.3111 -3.4488,8.6222 -3.4489,4.3111 -6.0356,9.4844 -2.5866,4.3111 -4.3111,8.6222 0.8622,6.8977 6.0356,11.2088 5.1733,4.3111 6.0355,11.2089 0,3.4489 -2.5867,6.8977 -2.5866,2.5867 -3.4488,6.0356 1.7244,3.4489 4.3111,7.7599 2.5866,4.3111 4.3111,8.6222 2.5866,4.3111 3.4488,9.4844 1.7245,4.3111 2.5867,9.4845 1.7244,4.311 2.5866,8.6221 1.7245,4.3111 2.5867,8.6222 l 12.0711,9.4844 q 2.5866,1.7245 5.1733,5.1734 3.4489,2.5866 6.8977,4.3111 10.3467,2.5866 18.1066,5.1733 6.8978,1.7244 12.0711,1.7244 5.1733,0 11.2088,0 0,0 -0.8622,0 0,0 0,0.8622 h 1.7245 q -0.8623,0 -0.8623,-0.8622 1.7245,-1.7244 4.3111,-1.7244 2.5867,-0.8623 4.3111,-0.8623 5.1733,0 10.3467,0.8623 6.0355,0 12.071,-0.8623 1.7245,-1.7244 4.3111,0 3.4489,0.8623 6.0356,1.7245 3.4488,0 5.1733,-1.7245 0,-3.4488 -0.8623,-6.0355 0,-2.5866 2.5867,-4.3111 11.2089,-6.0355 21.5555,-9.4844 4.3111,-3.4489 6.8977,-6.0355 3.4489,-2.5867 6.0356,-6.0356 3.4488,-1.7244 5.1733,-4.3111 2.5866,-2.5866 6.0355,-3.4488 7.76,-2.5867 12.9333,-6.8978 6.0355,-5.1733 11.2088,-10.3466 0.8623,-1.7244 0.8623,-2.5867 0.8622,-1.7244 1.7244,-3.4488 9.4844,-19.8311 4.3111,-39.6621 z"
         id="path6049" />
      <path
         d="m 6072.1042,-2749.6774 q -0.8622,10.3466 0,20.6933 0.8623,9.4844 -0.8622,18.9688 -2.5866,11.2088 -3.4489,22.4177 -0.8622,11.2088 -1.7244,22.4177 -3.4489,6.0355 -6.0355,12.9333 -1.7245,6.0355 -5.1733,11.2088 -3.4489,5.1733 -6.8978,10.3466 -3.4489,4.3111 -7.76,10.3467 -1.7244,1.7244 -1.7244,6.0355 -7.76,10.3466 -17.2444,18.9688 -8.6222,7.76 -19.831,12.9333 -6.0356,10.3466 -12.0711,16.3822 -1.7244,2.5866 -6.0355,4.3111 -11.2089,5.1733 -25.0044,7.7599 -17.2444,4.3111 -24.1421,18.1066 v 15.52 q 0.8622,3.4488 5.1733,4.3111 5.1733,0.8622 8.6222,5.1733 0,0.8622 1.7244,1.7244 1.7245,0.8622 1.7245,2.5867 3.4489,14.6577 17.2444,18.9688 5.1733,6.8977 9.4844,13.7955 5.1733,6.0355 9.4844,12.0711 4.3111,2.5866 7.7599,5.1733 4.3111,1.7244 8.6222,4.3111 1.7245,3.4488 4.3111,8.6222 3.4489,4.3111 6.0356,8.6222 3.4488,3.4488 6.8977,6.0355 3.4489,1.7244 4.3111,3.4489 2.5867,11.2088 -0.8622,14.6577 -10.3466,12.071 -13.7955,22.4177 -1.7245,2.5866 -3.4489,4.3111 -1.7244,0.8622 -3.4489,2.5866 -6.0355,3.4489 -12.9332,4.3111 -6.8978,0.8622 -11.2089,5.1733 -4.3111,3.4489 -9.4844,3.4489 -5.1733,0.8622 -9.4844,4.3111 -6.8978,5.1733 -12.9333,11.2089 -5.1733,6.8977 -13.7955,11.2088 -3.4489,-0.8622 -8.6222,-0.8622 -5.1733,0 -9.4844,0 l -17.2444,-12.0711 q -3.4489,-3.4489 -3.4489,-4.3111 -1.7244,-4.3111 -3.4488,-8.6222 -1.7245,-3.4488 -3.4489,-6.8977 -0.8622,-3.4489 -4.3111,-6.0356 -3.4489,-3.4488 -5.1733,-6.8977 v -6.8978 q 0,-6.8977 -6.0356,-6.8977 -2.5866,-0.8622 -4.311,-0.8622 -1.7245,0 -3.4489,0 -12.9333,-9.4844 -24.1422,-23.2799 -8.6221,-8.6222 -17.2443,-12.9333 -7.76,-5.1733 -14.6578,-12.9333 -6.8977,-7.76 -13.7955,-15.52 -4.3111,-5.1733 -8.6222,-10.3466 -4.311,-6.0355 -9.4844,-9.4844 -7.7599,-0.8622 -15.5199,0 -7.76,0.8622 -13.7955,4.3111 -1.7244,0 -4.3111,4.3111 -0.8622,6.0355 -1.7244,12.0711 -0.8623,5.1733 -1.7245,11.2088 3.4489,16.3822 0.8622,33.6266 -2.5866,9.4844 -3.4488,18.9688 0,9.4844 -0.8623,18.9688 0,3.4489 0,7.76 0,4.3111 -1.7244,7.7599 -1.7244,7.76 -9.4844,10.3467 h -3.4489 q -3.4489,-0.8623 -6.8977,-1.7245 -2.5867,0 -6.8978,-0.8622 -12.9333,3.4489 -26.7288,0.8622 -13.7955,-2.5866 -27.591,-4.3111 -13.7955,-1.7244 -26.7288,-4.3111 -1.7244,0 -3.4488,-0.8622 -0.8623,0 -2.5867,-0.8622 -3.4489,-3.4489 -3.4489,-6.0355 0,-7.76 -0.8622,-15.52 -0.8622,-8.6222 -2.5866,-17.2444 -4.3111,-15.5199 1.7244,-26.7287 -0.8622,-7.76 -1.7244,-15.52 -0.8623,-7.76 0,-14.6577 1.7244,-3.4489 0,-8.6222 -0.8623,-5.1733 -4.3111,-3.4489 -0.8623,0.8622 -2.5867,0.8622 -1.7244,-0.8622 -1.7244,-1.7244 -0.8623,-1.7244 -1.7245,-3.4489 -0.8622,-2.5866 -1.7244,-3.4489 0,-4.311 0,-9.4844 0,-5.1733 -0.8622,-9.4844 0,-4.3111 0,-8.6222 0,-4.3111 -1.7245,-7.7599 -2.5866,-8.6222 -2.5866,-18.1066 0,-9.4844 0,-18.1066 -0.8622,-3.4489 -1.7245,-5.1733 -0.8622,-2.5867 -2.5866,-5.1734 1.7244,-6.0355 2.5866,-11.2088 1.7245,-6.0355 -2.5866,-12.0711 1.7244,-6.8977 0.8622,-13.7955 -0.8622,-7.7599 3.4489,-15.5199 1.7244,-4.3111 0.8622,-8.6222 -0.8622,-4.3111 -1.7244,-10.3466 1.7244,-6.8978 4.311,-12.9333 2.5867,-6.8978 4.3111,-15.52 -0.8622,-4.3111 -2.5866,-14.6577 -1.7245,-4.3111 -2.5867,-7.76 -0.8622,-3.4488 -1.7244,-6.8977 -0.8622,-4.3111 0.8622,-7.76 2.5867,-4.3111 0.8622,-8.6222 -0.8622,-6.0355 -0.8622,-7.7599 0.8622,-1.7245 4.3111,-6.8978 -0.8622,-1.7244 -0.8622,-2.5866 0,-1.7245 -0.8622,-2.5867 -7.76,-10.3466 -3.4489,-25.8666 1.7244,-5.1733 3.4489,-10.3466 2.5866,-5.1733 3.4488,-9.4844 -0.8622,-3.4489 -1.7244,-6.8978 0,-3.4488 -0.8622,-6.8977 l 6.0355,-20.6933 q -1.7244,-6.0355 -2.5866,-12.071 -0.8623,-6.0356 -2.5867,-12.0711 0,-7.76 6.8978,-16.3822 3.4488,-4.3111 6.8977,-3.4488 4.3111,0.8622 10.3466,0 6.0356,-1.7245 12.0711,-4.3111 6.8978,-2.5867 14.6577,-3.4489 7.76,-0.8622 14.6577,-6.8978 6.8978,-4.3111 13.7956,-6.8977 6.8977,-3.4489 13.7955,-5.1733 13.7955,2.5866 17.2443,2.5866 4.3111,-0.8622 13.7955,-6.8977 h 15.52 q 4.3111,-0.8622 8.6222,-1.7245 4.3111,-1.7244 9.4844,-2.5866 1.7244,-1.7245 5.1733,-4.3111 4.3111,-2.5867 7.76,-4.3111 5.1733,-0.8622 11.2088,-1.7244 6.0355,-1.7245 12.0711,-2.5867 2.5866,0.8622 4.3111,2.5867 2.5866,0.8622 5.1733,2.5866 5.1733,2.5867 8.6222,6.0355 3.4489,1.7245 6.0355,1.7245 8.6222,0.8622 16.3822,1.7244 7.7599,0 16.3821,-0.8622 2.5867,-0.8622 6.0356,-0.8622 4.3111,0 7.7599,0 4.3111,0 9.4844,0.8622 5.1734,0 9.4845,0.8622 5.1733,0 7.7599,3.4489 3.4489,3.4489 6.0356,3.4489 12.071,3.4488 22.4177,3.4488 10.3466,0 20.6932,-0.8622 4.3111,1.7245 8.6222,4.3111 5.1733,1.7245 9.4844,3.4489 3.4489,-1.7244 5.1733,-2.5867 2.5867,-1.7244 5.1733,-2.5866 6.8978,-1.7245 10.3467,0.8622 2.5866,1.7244 4.3111,3.4489 2.5866,1.7244 5.1733,3.4489 1.7244,2.5866 3.4488,5.1733 1.7245,2.5866 5.1734,4.3111 h 12.071 q 3.4489,0.8622 7.76,6.8977 5.1733,6.0356 9.4844,12.0711 5.1733,6.0355 11.2089,12.9333 6.0355,6.0355 10.3466,13.7955 4.3111,6.8977 10.3466,13.7955 2.5867,1.7244 3.4489,5.1733 1.7244,3.4489 2.5866,6.8977 0,10.3467 0,20.6933 0.8623,9.4844 4.3111,18.9688 z m -424.2117,-106.9151 v -0.8623 h -1.7244 z m 297.4655,154.3372 q 0,0 -0.8622,-0.8623 -0.8622,-0.8622 -0.8622,-1.7244 0,-7.76 -2.5867,-14.6577 -2.5866,-7.76 -9.4844,-12.9333 -3.4488,-1.7244 -5.1733,-4.3111 -1.7244,-3.4489 -4.3111,-6.0355 -6.0355,-7.76 -13.7955,-12.9333 -0.8622,-1.7245 -3.4488,-1.7245 -2.5867,-0.8622 -4.3111,-1.7244 -4.3111,2.5867 -14.6578,5.1733 -6.8977,-4.3111 -14.6577,-4.3111 -7.76,0 -16.3821,1.7245 -8.6222,0 -18.1066,0 -8.6222,-0.8623 -17.2444,1.7244 -9.4844,-0.8622 -18.9688,0 -9.4845,0.8622 -18.9689,1.7244 -7.7599,0 -11.2088,0.8623 -6.0355,3.4488 -12.0711,3.4488 -5.1733,-0.8622 -11.2088,0.8623 -3.4489,3.4488 -4.3111,8.6221 -0.8622,5.1734 -2.5867,9.4845 5.1733,19.831 -1.7244,39.662 4.3111,6.0356 6.0355,12.0711 2.5867,5.1733 0,12.0711 0,0.8622 0,1.7244 0.8622,0.8622 0.8622,1.7244 1.7245,5.1733 1.7245,10.3467 0,5.1733 -1.7245,10.3466 -1.7244,0.8622 -4.3111,2.5866 -1.7244,0.8623 -3.4488,2.5867 4.3111,4.3111 10.3466,4.3111 2.5867,-1.7244 6.0355,-2.5867 3.4489,-1.7244 6.8978,-4.3111 14.6577,4.3111 29.3154,3.4489 15.52,-0.8622 29.3155,5.1733 h 6.0355 q 3.4489,0 7.76,-0.8622 4.3111,-0.8622 7.7599,-0.8622 3.4489,-2.5867 9.4845,-4.3111 18.9688,-5.1733 33.6265,-17.2444 6.0355,-4.3111 12.0711,-5.1733 6.0355,-1.7244 12.071,-2.5866 2.5867,0 5.1733,0 3.4489,0 6.8978,-0.8623 2.5867,-6.8977 8.6222,-11.2088 6.8977,-5.1733 11.2088,-12.0711 -3.4488,-4.3111 0,-7.7599 4.3111,-3.4489 5.1733,-8.6222 z"
         id="path6051" />
      <path
         d="m 6543.737,-2871.2503 q -1.7244,10.3467 -2.5866,20.6933 0,9.4844 0,19.831 0,12.0711 -0.8622,23.2799 0,11.2089 -1.7245,23.28 -0.8622,1.7244 -0.8622,5.1733 0.8622,8.6222 2.5867,17.2444 2.5866,7.7599 0.8622,14.6577 -1.7245,4.3111 -0.8622,8.6222 0.8622,4.3111 -0.8623,8.6222 -0.8622,1.7244 -1.7244,3.4488 -0.8622,1.7245 -1.7244,3.4489 -4.3111,0.8622 -8.6222,1.7244 -3.4489,0 -7.76,0 -1.7244,0.8623 -5.1733,3.4489 -2.5867,1.7245 -5.1733,3.4489 -3.4489,-1.7244 -6.0356,-3.4489 -1.7244,-1.7244 -4.3111,-2.5866 -1.7244,0 -4.311,0 -2.5867,-0.8623 -4.3111,0 -6.0356,2.5866 -16.3822,1.7244 -9.4844,-1.7244 -16.3822,-1.7244 -8.6222,0 -16.3821,2.5866 -6.8978,1.7245 -14.6577,5.1733 -6.0356,3.4489 -12.9333,4.3111 -6.0356,0 -12.9333,2.5867 -4.3111,6.0355 -3.4489,11.2088 1.7244,6.8978 2.5867,15.52 1.7244,7.7599 -1.7245,16.3821 0,3.4489 0.8622,4.3111 3.4489,8.6222 3.4489,17.2444 0,8.6222 -1.7244,18.1066 -0.8622,8.6222 -0.8622,17.2444 0,7.76 -1.7245,17.2444 -1.7244,9.4844 0.8622,17.2443 0.8623,5.1734 0.8623,10.3467 0,5.1733 0,9.4844 -0.8623,6.0355 -0.8623,3.4489 0,-3.4489 0,-3.4489 v 2.5866 q 0,0.8623 -0.8622,1.7245 0,0 0,0.8622 0.8622,14.6577 0,22.4177 0,6.8977 -0.8622,12.9333 -0.8622,5.1733 -3.4489,16.3821 v 4.3111 q 3.4489,13.7955 3.4489,28.4533 0,13.7955 -0.8622,27.591 0,9.4844 0,18.9688 0.8622,9.4844 4.3111,19.831 -0.8622,5.1733 -2.5867,12.0711 -1.7244,6.0355 -4.3111,12.0711 -0.8622,3.4488 -3.4488,6.0355 -1.7245,2.5866 -6.0356,6.0355 -20.6932,-1.7244 -38.7998,3.4489 -9.4844,3.4489 -19.8311,-2.5867 -1.7244,-1.7244 -1.7244,-1.7244 -12.9333,-7.76 -25.0044,-2.5867 -5.1733,2.5867 -10.3466,1.7245 -5.1733,-0.8622 -9.4844,-0.8622 -6.0355,0 -10.3466,4.3111 -4.3111,4.3111 -11.2089,0.8622 -0.8622,-6.8978 0.8622,-12.9333 2.5867,-6.0355 3.4489,-13.7955 -0.8622,-6.0355 -3.4489,-12.9333 -1.7244,-6.8977 -3.4488,-13.7955 1.7244,-4.3111 2.5866,-7.76 0.8622,-4.3111 0.8622,-7.7599 0.8623,-4.3111 0,-8.6222 0,-5.1733 0,-9.4844 0.8623,-13.7955 0,-25.8666 0,-12.9333 -1.7244,-25.8666 -1.7244,-10.3466 -2.5866,-19.831 0,-10.3466 -0.8623,-21.5555 2.5867,-3.4489 4.3111,-6.8977 2.5867,-3.4489 6.0356,-6.8978 0.8622,-6.8977 0.8622,-6.8977 0,0 0,0 0,-0.8623 0,-8.6222 -0.8622,-12.0711 0,-25.0044 0.8622,-13.7955 3.4489,-25.8666 -0.8623,-9.4844 -2.5867,-18.1066 -1.7244,-9.4844 -6.0355,-18.1066 1.7244,-4.3111 3.4488,-8.6221 2.5867,-4.3111 3.4489,-7.76 -0.8622,-6.8978 0,-12.0711 1.7245,-5.1733 -0.8622,-11.2088 -0.8622,-2.5867 -4.3111,-4.3111 -6.0355,0 -12.0711,-0.8622 -6.0355,-0.8623 -12.071,-0.8623 -6.0356,0 -12.0711,-1.7244 -5.1733,-1.7244 -11.2088,0 -5.1734,2.5867 -10.3467,0.8622 -4.3111,-2.5866 -9.4844,-1.7244 h -22.4177 l -21.5554,-3.4489 q -1.7245,0 -4.3111,-2.5867 -2.5867,-2.5866 -2.5867,-5.1733 v -6.0355 q 1.7244,-5.1733 2.5867,-10.3466 1.7244,-6.0356 0,-12.0711 -0.8623,-0.8622 -0.8623,-2.5866 0.8623,-2.5867 0.8623,-3.4489 3.4488,-15.52 3.4488,-36.2132 0,-20.6933 -1.7244,-36.2132 0,-5.1733 0,-10.3466 0,-5.1734 1.7244,-9.4845 4.3111,-4.3111 8.6222,-4.3111 4.3111,-0.8622 8.6222,-1.7244 4.3111,-1.7244 7.76,-3.4489 3.4489,-2.5866 7.76,-3.4488 19.831,-6.8978 37.0754,0 0,0 6.0355,1.7244 7.76,-3.4489 16.3822,-2.5867 8.6222,0 18.1066,-4.3111 1.7244,0 5.1733,0.8623 4.3111,0 8.6222,0 7.7599,-3.4489 15.5199,-6.8978 8.6222,-3.4489 16.3822,-10.3466 13.7955,-1.7245 26.7288,-0.8622 13.7955,0.8622 25.8665,-3.4489 6.0356,0.8622 10.3467,3.4489 5.1733,1.7244 8.6221,3.4488 6.0356,0 9.4845,-3.4488 3.4488,-4.3111 10.3466,-5.1734 6.8977,-1.7244 19.831,0.8623 5.1733,0.8622 10.3467,5.1733 6.0355,3.4489 12.071,2.5866 4.3111,-2.5866 6.8978,-5.1733 3.4488,-2.5866 7.7599,-5.1733 5.1734,0 11.2089,2.5867 6.0355,1.7244 11.2088,0.8622 6.0356,-0.8622 11.2089,-1.7245 6.0355,-1.7244 14.6577,-1.7244 3.4489,0.8622 6.8978,2.5867 3.4488,0.8622 6.8977,2.5866 5.1733,-1.7244 10.3466,-2.5866 6.0356,-0.8623 12.0711,-1.7245 1.7244,2.5867 3.4489,5.1733 1.7244,2.5867 2.5866,4.3111 z"
         id="path6053" />
      <path
         d="m 6737.7353,-2422.8964 q -0.8622,6.0355 -1.7244,12.9333 -0.8622,6.0355 -2.5867,12.0711 -0.8622,9.4844 -4.3111,18.9688 -2.5866,8.6222 -9.4844,15.5199 -1.7244,2.5867 -3.4488,4.3111 -1.7245,2.5867 -3.4489,4.3111 -3.4489,3.4489 -7.76,5.1733 -4.3111,2.5867 -11.2088,4.3111 -6.0356,0 -12.9333,0 -6.8978,0.8622 -15.52,0.8622 -14.6577,0 -24.1421,-11.2088 -3.4489,-4.3111 -7.76,-9.4844 -3.4488,-5.1733 -7.7599,-10.3466 -0.8623,-5.1734 -2.5867,-10.3467 -1.7244,-5.1733 -2.5867,-10.3466 -1.7244,-10.3466 -0.8622,-19.831 0.8622,-9.4844 6.8978,-18.1066 0.8622,-0.8622 1.7244,-1.7245 0.8622,-0.8622 1.7245,-1.7244 6.8977,-6.8978 14.6577,-12.0711 8.6222,-6.0355 18.9688,-8.6222 2.5867,-0.8622 6.8977,-0.8622 4.3111,-0.8622 7.76,-1.7244 4.3111,0 8.6222,0 4.3111,-0.8622 9.4844,-1.7245 14.6577,7.76 25.0044,16.3822 11.2088,8.6222 16.3821,23.2799 z"
         id="path6055" />
      <path
         d="m 7268.8619,-2645.3489 q 1.7245,6.0355 -0.8622,12.0711 -2.5867,6.0355 -0.8622,12.9333 0,3.4488 -1.7245,6.8977 0,1.7245 -0.8622,3.4489 -0.8622,0.8622 -0.8622,1.7244 0.8622,13.7955 0,18.9689 0,4.311 -4.3111,18.1065 0.8622,3.4489 0.8622,8.6222 0.8623,4.3111 1.7245,9.4844 -0.8622,6.0356 -4.3111,15.52 -2.5867,-1.7244 -5.1733,-2.5867 -1.7245,-0.8622 -3.4489,-1.7244 -5.1733,-1.7244 -5.1733,4.3111 0,6.0355 1.7244,11.2088 2.5867,4.3111 6.0355,8.6222 -1.7244,6.8978 -3.4488,14.6577 -0.8623,7.76 -2.5867,16.3822 -4.3111,7.76 -9.4844,16.3822 -5.1733,7.7599 -13.7955,12.071 -0.8622,4.3111 -1.7244,7.76 -0.8623,2.5867 -2.5867,6.8978 -7.76,6.0355 -15.5199,12.9332 -7.76,6.0356 -12.9333,12.9333 -4.3111,3.4489 -7.76,2.5867 -3.4489,-0.8622 -6.8977,0 -6.0356,4.3111 -12.0711,8.6222 -5.1733,4.3111 -11.2089,8.6222 -6.0355,3.4488 -11.2088,7.7599 -5.1733,4.3111 -11.2089,8.6222 h -12.9332 q -4.3111,3.4489 -7.76,6.0356 -3.4489,1.7244 -7.76,4.3111 -2.5866,0 -4.3111,0.8622 -0.8622,0 -2.5866,-0.8622 -8.6222,-0.8623 -12.0711,0.8622 -3.4489,0.8622 -13.7955,5.1733 -7.76,2.5866 -15.5199,5.1733 -7.76,3.4489 -15.52,6.8978 -9.4844,-4.3111 -19.831,-4.3111 -9.4844,0 -19.8311,0 -5.1733,-3.4489 -10.3466,-6.0356 -3.4489,-1.7244 -6.0355,-2.5866 -1.7245,-0.8622 -5.1733,-1.7245 -1.7245,0 -5.1734,0 -2.5866,0 -6.0355,1.7245 -1.7244,0.8622 -4.3111,2.5866 -2.5866,1.7245 -4.3111,4.3111 -16.3821,-2.5866 -33.6265,-5.1733 -17.2444,-1.7244 -34.4888,-5.1733 -6.8977,-1.7244 -13.7955,-3.4489 -6.0355,-2.5866 -12.9333,-4.3111 -5.1733,0.8622 -10.3466,1.7245 -5.1733,0.8622 -11.2088,2.5866 -13.7955,1.7245 -19.8311,-12.071 0,-1.7245 -0.8622,-3.4489 0,-1.7245 0,-2.5867 1.7244,-9.4844 3.4489,-18.1066 1.7244,-8.6222 2.5866,-16.3821 0,-1.7245 3.4489,-5.1734 v -3.4488 q -3.4489,-2.5867 -6.8977,-5.1733 -2.5867,-2.5867 -5.1734,-5.1734 l -0.8622,-77.5997 v -0.8622 h 6.0356 q -0.8623,-1.7244 -2.5867,-2.5866 -1.7244,-1.7245 -3.4489,-2.5867 0,0 2.5867,-7.76 2.5866,-7.7599 3.4489,-11.2088 1.7244,-5.1733 -0.8623,-8.6222 -1.7244,-3.4489 -2.5866,-6.8978 1.7244,-3.4488 3.4489,-6.0355 1.7244,-3.4489 2.5866,-6.8977 -0.8622,-4.3111 -2.5866,-7.76 -1.7245,-3.4489 -3.4489,-6.8978 -0.8622,-4.3111 0,-8.6222 1.7244,-5.1733 1.7244,-8.6221 1.7245,-4.3111 0.8622,-8.6222 -0.8622,-4.3111 -0.8622,-10.3467 -2.5866,-9.4844 -7.7599,-20.6932 2.5866,-5.1733 4.311,-10.3467 1.7245,-5.1733 3.4489,-10.3466 l -2.5866,-12.071 q 1.7244,-6.8978 3.4488,-13.7955 2.5867,-7.76 3.4489,-13.7956 -3.4489,-12.9332 -3.4489,-25.0043 0.8623,-12.9333 0.8623,-25.8666 0,-6.8977 4.3111,-15.5199 1.7244,-1.7245 1.7244,-3.4489 0.8622,-2.5866 1.7244,-3.4489 -4.3111,-8.6222 -5.1733,-12.9333 0,-5.1733 1.7245,-10.3466 1.7244,-6.0355 -2.5867,-10.3466 -2.5867,-9.4844 -1.7244,-17.2444 0.8622,-8.6222 2.5866,-17.2444 4.3111,-4.3111 6.8978,-8.6222 3.4488,-5.1733 6.8977,-10.3466 4.3111,-0.8622 8.6222,-1.7244 5.1733,-1.7245 8.6222,-0.8622 13.7955,2.5866 29.3154,-4.3111 4.3111,-2.5867 8.6222,-1.7245 5.1734,0.8622 10.3467,2.5867 16.3821,-2.5867 32.7643,-5.1733 16.3822,-2.5867 31.9021,-6.8978 4.3111,-1.7244 8.6222,-0.8622 4.3111,0.8622 10.3466,0.8622 l 15.52,-6.8977 q 4.311,0.8622 8.6221,2.5866 4.3111,0.8622 8.6222,2.5867 5.1733,-0.8622 10.3467,-2.5867 5.1733,-1.7244 11.2088,-2.5866 3.4489,1.7244 6.8978,4.3111 3.4488,2.5866 6.8977,4.3111 9.4844,-0.8623 17.2444,-3.4489 8.6222,-2.5867 17.2444,-3.4489 3.4488,3.4489 5.1733,7.76 1.7244,3.4488 5.1733,6.0355 3.4489,4.3111 9.4844,4.3111 6.8978,-0.8622 9.4844,-6.0355 1.7245,-4.3111 5.1733,-3.4489 4.3111,0.8622 8.6222,7.76 5.1733,0 10.3466,-0.8623 5.1734,-0.8622 11.2089,-0.8622 4.3111,2.5867 6.8977,5.1733 3.4489,1.7245 6.8978,5.1734 3.4489,3.4488 6.8978,6.8977 3.4488,2.5867 7.7599,5.1733 5.1733,2.5867 6.8978,7.76 3.4488,5.1733 7.7599,10.3466 5.1734,4.3111 9.4845,8.6222 6.8977,7.76 20.6932,12.0711 1.7244,0.8622 3.4489,1.7244 2.5866,0.8622 3.4489,1.7244 1.7244,6.8978 3.4488,13.7956 2.5867,6.0355 3.4489,12.9332 -0.8622,7.76 -2.5866,12.9333 1.7244,7.76 6.8977,12.9333 5.1733,4.3111 9.4844,9.4844 12.0711,18.9688 12.0711,43.9732 0,8.6222 0.8622,17.2444 0.8622,7.7599 -0.8622,15.5199 -0.8622,6.8978 0.8622,13.7955 2.5867,6.8978 0.8622,13.7955 z m -127.6084,-16.3821 q -1.7244,-4.3111 -5.1733,-8.6222 -2.5867,-5.1733 -4.3111,-10.3467 -2.5867,-5.1733 -4.3111,-10.3466 -1.7244,-6.0355 -3.4489,-12.0711 -13.7955,-1.7244 -24.1421,-8.6221 -9.4844,-6.8978 -18.9688,-13.7956 h -12.9333 q -8.6222,-6.8977 -16.3822,-12.071 -7.7599,-6.0355 -16.3821,-12.0711 -14.6577,-1.7244 -29.3155,0 -13.7955,0.8622 -25.8665,-1.7244 -7.76,2.5866 -13.7955,4.3111 -5.1734,0.8622 -10.3467,2.5866 -5.1733,3.4489 -6.8977,5.1733 -2.5867,12.9333 -1.7245,25.8666 0.8623,12.9333 1.7245,25.8666 3.4489,5.1733 0.8622,10.3466 -1.7244,4.3111 -0.8622,8.6222 0.8622,2.5867 0.8622,5.1733 0.8622,2.5867 1.7244,6.8978 -1.7244,5.1733 -2.5866,11.2088 0,5.1733 -0.8622,12.0711 0,13.7955 -2.5867,25.8666 2.5867,4.311 4.3111,8.6221 1.7244,3.4489 3.4489,7.76 -2.5867,7.76 -6.0356,16.3822 -2.5866,7.7599 -4.3111,14.6577 0,4.3111 0,8.6222 0.8623,4.3111 0,8.6222 -0.8622,10.3466 -5.1733,20.6932 l 3.4489,6.0356 q 5.1733,12.9332 20.6933,9.4844 9.4844,0 15.5199,-2.5867 6.0355,-1.7244 11.2088,0 6.0356,0.8622 12.0711,0 6.8978,-1.7244 14.6577,-4.3111 8.6222,-3.4489 15.52,-6.0355 4.3111,-0.8622 7.7599,-1.7244 3.4489,-0.8623 6.8978,0 7.76,0.8622 16.3822,0 8.6222,-0.8623 17.2443,-1.7245 1.7245,-1.7244 5.1734,-2.5866 3.4488,-1.7245 6.0355,-3.4489 12.9333,-6.0356 22.4177,-19.8311 4.3111,-6.0355 6.8977,-12.9332 3.4489,-7.76 6.8978,-13.7955 6.8977,-14.6578 10.3466,-28.4533 3.4489,-14.6577 1.7245,-30.1776 -0.8623,-3.4489 -0.8623,-6.8978 0.8623,-3.4489 1.7245,-6.8977 0.8622,-3.4489 1.7244,-6.8978 0.8622,-3.4489 0,-6.8977 z"
         id="path6057" />
      <path
         d="m 7685.3119,-2785.0284 q -5.1734,4.3111 -12.0711,4.3111 -6.8978,0 -13.7955,0 -6.0355,0 -10.3466,2.5867 l -14.6578,-2.5867 q -3.4488,0.8623 -6.0355,1.7245 -2.5867,0 -6.8978,0.8622 -2.5866,0 -9.4844,-1.7244 -10.3466,-1.7245 -18.1066,0.8622 -10.3466,3.4488 -23.2799,2.5866 -7.7599,-1.7244 -16.3821,0.8622 -7.76,1.7245 -14.6578,3.4489 -3.4488,-0.8622 -6.8977,-0.8622 -2.5867,-0.8622 -4.3111,-1.7244 -5.1733,0.8622 -10.3466,3.4488 -4.3111,2.5867 -9.4844,6.0356 -2.5867,3.4489 -5.1734,8.6222 -1.7244,4.3111 -5.1733,8.6222 -0.8622,10.3466 -0.8622,21.5554 0,10.3467 -0.8622,19.8311 -0.8622,6.8977 -5.1733,11.2088 -3.4489,3.4489 -3.4489,8.6222 2.5867,6.8978 9.4844,7.76 5.1733,1.7244 11.2089,2.5866 6.0355,0 12.071,0.8623 6.8978,-2.5867 13.7955,-5.1734 6.8978,-2.5866 12.9333,-5.1733 9.4844,0 16.3822,0 6.8977,0 13.7955,-0.8622 2.5866,0 5.1733,0 2.5867,-0.8622 5.1733,-1.7244 12.0711,-5.1733 24.1421,-5.1733 12.0711,0 24.1422,1.7244 8.6222,2.5866 11.2088,12.9333 0,1.7244 0,4.3111 0.8622,1.7244 1.7245,4.3111 -0.8623,2.5866 -1.7245,6.0355 -0.8622,3.4489 -0.8622,7.76 0.8622,13.7955 -0.8622,27.591 -0.8622,13.7955 0,28.4532 0.8622,6.0355 -1.7245,12.0711 -1.7244,6.0355 -4.3111,10.3466 l -2.5866,1.7244 q -5.1733,0.8623 -9.4844,0 -3.4489,-1.7244 -7.76,-1.7244 -5.1733,0 -8.6222,2.5867 -3.4489,2.5866 -7.7599,4.311 -6.0356,0.8623 -12.9333,0.8623 -6.0356,0 -12.9333,-0.8623 -3.4489,-1.7244 -7.76,0 -3.4489,1.7245 -6.8977,3.4489 -7.76,-0.8622 -15.52,-1.7244 -6.8977,-1.7245 -13.7955,-5.1733 -5.1733,0 -10.3466,0 -5.1733,0 -11.2089,0.8622 -11.2088,0.8622 -23.2799,0 -9.4844,-1.7244 -17.2444,5.1733 -1.7244,0.8622 -3.4488,5.1733 -1.7245,3.4489 -0.8623,6.0356 3.4489,6.8977 3.4489,14.6577 0.8622,7.7599 0.8622,14.6577 0.8623,2.5867 1.7245,4.3111 0.8622,1.7244 1.7244,3.4489 -0.8622,1.7244 -2.5866,3.4488 -0.8623,1.7245 -1.7245,3.4489 -3.4489,8.6222 4.3111,10.3466 10.3466,2.5867 20.6933,5.1734 11.2088,2.5866 22.4177,4.3111 2.5866,-0.8623 6.0355,-1.7245 3.4489,-0.8622 6.0355,-0.8622 12.0711,0 24.1422,-1.7244 12.9333,-2.5867 25.0043,-2.5867 2.5867,0 6.0356,0 3.4488,-0.8622 6.8977,0 6.8978,2.5867 14.6577,3.4489 7.76,0.8622 15.52,0.8622 5.1733,0 9.4844,0.8622 5.1733,0 10.3466,0.8622 6.8978,1.7245 6.8978,6.8978 -0.8623,4.3111 -3.4489,9.4844 -1.7245,4.3111 -3.4489,7.76 -0.8622,6.0355 1.7244,9.4844 2.5867,3.4489 3.4489,6.8977 -0.8622,8.6222 -2.5866,16.3822 -0.8623,7.76 -5.1734,13.7955 0,5.1733 2.5867,7.76 2.5867,2.5866 3.4489,6.0355 -1.7245,1.7244 -3.4489,5.1733 -0.8622,2.5867 -2.5867,6.0355 1.7245,6.8978 2.5867,14.6578 1.7244,7.7599 -3.4489,14.6577 -2.5866,0.8622 -6.0355,2.5867 -2.5867,2.5866 -6.0355,1.7244 -8.6222,-1.7244 -17.2444,0 -7.76,1.7244 -15.52,2.5866 -6.0355,0.8623 -11.2088,3.4489 -5.1733,2.5867 -10.3466,4.3111 -8.6222,1.7245 -17.2444,2.5867 -8.6222,0.8622 -18.1066,2.5866 l -12.0711,-2.5866 q -7.7599,0.8622 -18.1066,2.5866 l -23.2799,-5.1733 q -3.4489,-2.5866 -6.8977,-6.0355 -2.5867,-2.5867 -6.8978,-4.3111 -0.8622,-0.8622 -3.4489,-0.8622 -1.7244,0.8622 -1.7244,1.7244 0,8.6222 -9.4844,11.2089 -4.3111,-1.7245 -9.4844,-2.5867 -5.1733,-0.8622 -9.4844,-1.7244 -4.3111,-0.8623 -9.4844,-0.8623 -5.1734,0.8623 -9.4845,0.8623 -10.3466,0 -20.6932,-2.5867 -9.4844,-2.5867 -19.831,-11.2088 -0.8623,-2.5867 -2.5867,-5.1734 -1.7244,-2.5866 -3.4489,-6.0355 -3.4489,-1.7244 -6.8977,-4.3111 -2.5867,-2.5866 -6.0356,-4.3111 l -9.4844,-5.1733 q -3.4488,-5.1733 -3.4488,-9.4844 0,-5.1733 -0.8623,-9.4844 -0.8622,-4.3111 -1.7244,-8.6222 0,-5.1733 -0.8622,-10.3466 1.7244,-10.3467 1.7244,-20.6933 0.8622,-10.3466 0,-21.5555 -0.8622,-9.4844 0,-18.9688 1.7245,-10.3466 5.1733,-19.831 -0.8622,-3.4489 -2.5866,-6.0355 -0.8622,-2.5867 -0.8622,-6.0356 0,-4.3111 1.7244,-8.6222 1.7244,-4.3111 0,-8.6222 0,-1.7244 0.8622,-2.5866 1.7244,-0.8622 2.5867,-1.7245 2.5866,-6.0355 -1.7245,-6.8977 -8.6222,-2.5867 -8.6222,-8.6222 1.7245,-5.1733 0.8623,-10.3466 -0.8623,-5.1733 -0.8623,-11.2089 0,-4.3111 0.8623,-8.6222 0.8622,-4.3111 -0.8623,-8.6222 0,-0.8622 -0.8622,-2.5866 0,-1.7244 0.8622,-2.5867 4.3111,-9.4844 2.5867,-18.1066 -0.8622,-8.6222 -3.4489,-17.2443 3.4489,-7.76 4.3111,-14.6578 0.8622,-7.7599 0.8622,-15.5199 v -23.2799 q 0.8623,-2.5867 0.8623,-5.1733 0,-3.4489 0.8622,-5.1734 6.8977,-18.9688 -0.8622,-39.662 -0.8623,-1.7245 -0.8623,-5.1733 1.7245,-5.1734 3.4489,-9.4844 2.5867,-5.1734 3.4489,-10.3467 1.7244,-6.8977 3.4489,-14.6577 2.5866,-7.76 3.4488,-14.6577 v -6.0356 q -0.8622,-4.3111 -0.8622,-8.6221 0.8622,-5.1734 0,-9.4845 -0.8622,-4.311 -0.8622,-8.6221 0.8622,-4.3111 0.8622,-7.76 0,-3.4489 -0.8622,-5.1733 0,-2.5867 -0.8622,-5.1733 1.7244,-6.0356 6.8977,-9.4845 5.1733,-3.4488 6.0356,-8.6221 10.3466,-6.8978 20.6932,-8.6222 11.2089,-2.5867 20.6933,-7.76 9.4844,-5.1733 19.831,-6.0355 10.3466,-0.8623 19.8311,-4.3111 6.0355,1.7244 11.2088,3.4488 6.0355,1.7245 12.0711,3.4489 3.4488,0 6.8977,0 4.3111,-0.8622 7.76,-1.7244 6.0355,0.8622 11.2088,2.5866 5.1733,1.7245 11.2089,0.8623 9.4844,-2.5867 18.1066,0 4.3111,0 7.7599,0.8622 3.4489,0 6.8978,0.8622 12.9333,-9.4844 27.591,-5.1733 6.8978,2.5866 13.7955,1.7244 6.8978,-0.8622 13.7955,1.7245 6.8978,1.7244 12.9333,1.7244 6.8978,-0.8622 12.9333,-0.8622 7.76,-1.7245 15.5199,0 6.8978,1.7244 14.6578,2.5866 8.6221,0.8623 15.5199,0.8623 4.3111,0 12.0711,6.0355 12.071,47.422 4.3111,93.1196 z"
         id="path6059" />
    </g>
  </g>
</svg>
